<svg id="enGdabJryAT1" xmlns="http://www.w3.org/2000/svg" xmlns:xlink="http://www.w3.org/1999/xlink" viewBox="0 0 409.32 510.43" shape-rendering="geometricPrecision" text-rendering="geometricPrecision"><style><![CDATA[#enGdabJryAT5_tr {animation: enGdabJryAT5_tr__tr 3000ms linear infinite normal forwards}@keyframes enGdabJryAT5_tr__tr { 0% {transform: translate(245.555709px,147.600453px) rotate(-1.1436deg)} 0.666667% {transform: translate(245.555709px,147.600453px) rotate(-0.61826deg)} 1.333333% {transform: translate(245.555709px,147.600453px) rotate(-0.348336deg)} 2% {transform: translate(245.555709px,147.600453px) rotate(0.628856deg)} 3.333333% {transform: translate(245.555709px,147.600453px) rotate(-0.63769deg)} 4.333333% {transform: translate(245.555709px,147.600453px) rotate(-2.820007deg)} 6.333333% {transform: translate(245.555709px,147.600453px) rotate(-2.016728deg)} 8% {transform: translate(245.555709px,147.600453px) rotate(-1.989131deg)} 100% {transform: translate(245.555709px,147.600453px) rotate(-1.989131deg)}} #enGdabJryAT12_tr {animation: enGdabJryAT12_tr__tr 3000ms linear infinite normal forwards}@keyframes enGdabJryAT12_tr__tr { 0% {transform: translate(249.604423px,357.325409px) rotate(4.115211deg)} 3.333333% {transform: translate(249.604423px,357.325409px) rotate(7.741727deg)} 6.666667% {transform: translate(249.604423px,357.325409px) rotate(5.601155deg)} 10% {transform: translate(249.604423px,357.325409px) rotate(1.21131deg)} 100% {transform: translate(249.604423px,357.325409px) rotate(1.21131deg)}} #enGdabJryAT30_to {animation: enGdabJryAT30_to__to 3000ms linear infinite normal forwards}@keyframes enGdabJryAT30_to__to { 0% {transform: translate(212.041403px,413.273093px)} 6.666667% {transform: translate(212.041403px,413.273093px)} 10% {transform: translate(207.74282px,399.137405px)} 13.333333% {transform: translate(199.63139px,372.465946px)} 16.666667% {transform: translate(191.411009px,351.50593px)} 20% {transform: translate(185.766905px,325.106477px)} 23.333333% {transform: translate(185.766904px,308.33356px)} 26.666667% {transform: translate(185.766904px,297.070916px)} 30% {transform: translate(184.499559px,278.220891px)} 33.333333% {transform: translate(179.756925px,266.720476px)} 36.666667% {transform: translate(178.706049px,256.639936px)} 40% {transform: translate(178.706049px,244.454104px)} 43.333333% {transform: translate(175.284679px,232.203542px)} 46.666667% {transform: translate(175.284679px,232.203542px)} 50% {transform: translate(175.284679px,220.703126px)} 53.333333% {transform: translate(175.284679px,232.203542px)} 56.666667% {transform: translate(175.284679px,232.203542px)} 60% {transform: translate(178.706049px,244.454104px)} 63.333333% {transform: translate(178.706049px,256.639936px)} 66.666667% {transform: translate(179.756925px,266.720476px)} 70% {transform: translate(184.499559px,278.220891px)} 73.333333% {transform: translate(185.766904px,297.070916px)} 76.666667% {transform: translate(185.766904px,308.33356px)} 80% {transform: translate(185.766905px,325.106477px)} 83.333333% {transform: translate(191.411009px,351.50593px)} 86.666667% {transform: translate(199.63139px,372.465946px)} 90% {transform: translate(207.74282px,399.137405px)} 93.333333% {transform: translate(212.041403px,413.273093px)} 100% {transform: translate(212.041403px,413.273093px)}} #enGdabJryAT30_tr {animation: enGdabJryAT30_tr__tr 3000ms linear infinite normal forwards}@keyframes enGdabJryAT30_tr__tr { 0% {transform: rotate(336.835838deg)} 6.666667% {transform: rotate(336.835838deg)} 10% {transform: rotate(320.864052deg)} 13.333333% {transform: rotate(268.265181deg)} 16.666667% {transform: rotate(231.492737deg)} 20% {transform: rotate(182.007988deg)} 23.333333% {transform: rotate(160.67375deg)} 26.666667% {transform: rotate(133.203161deg)} 30% {transform: rotate(97.776276deg)} 33.333333% {transform: rotate(74.613362deg)} 36.666667% {transform: rotate(62.016233deg)} 40% {transform: rotate(41.605062deg)} 43.333333% {transform: rotate(28.188668deg)} 46.666667% {transform: rotate(17.002646deg)} 50% {transform: rotate(5.074398deg)} 53.333333% {transform: rotate(17.002646deg)} 56.666667% {transform: rotate(28.188668deg)} 60% {transform: rotate(41.605062deg)} 63.333333% {transform: rotate(62.016233deg)} 66.666667% {transform: rotate(74.613362deg)} 70% {transform: rotate(97.776276deg)} 73.333333% {transform: rotate(133.203161deg)} 76.666667% {transform: rotate(160.67375deg)} 80% {transform: rotate(182.007988deg)} 83.333333% {transform: rotate(231.492737deg)} 86.666667% {transform: rotate(268.265181deg)} 90% {transform: rotate(320.864052deg)} 93.333333% {transform: rotate(336.835838deg)} 100% {transform: rotate(336.835838deg)}}]]></style><path id="enGdabJryAT2" d="M544,505.07C547.12,501.13,551.23,508.96,555.35,506.07L532.55,506.07C537.19,508.64,540.81,500.86,544,505.07Z" transform="matrix(1 0 0 1 -227.18 0)" fill="none" stroke="none" stroke-width="1"/><path id="enGdabJryAT3" d="M619,506.07L615,506.07C615.84,506.66,616.69,507.25,617.49,507.89C618,507.27,618.48,506.67,619,506.07Z" transform="matrix(1 0 0 1 -227.18 0)" fill="none" stroke="none" stroke-width="1"/><g id="enGdabJryAT4"><g id="enGdabJryAT5_tr" transform="translate(245.555709,147.600453) rotate(-1.1436)"><g id="enGdabJryAT5" transform="translate(-245.555709,-147.600453)"><path id="enGdabJryAT6" d="M413.34,180.24C413.34,180.24,374.81,168.24,380.72,187.98C386.63,207.72,419.1,197.76,419.1,197.76Z" transform="matrix(1 0 0 1 -227.18 0)" fill="rgb(197,197,197)" stroke="none" stroke-width="1"/><path id="enGdabJryAT7" d="M560.65,106.11C560.65,106.11,540.9,79.11,521.71,107.11C502.52,135.11,484.61,158.23,484.61,158.23L436.87,173.8L409.25,176.25L416.85,200.8L497.17,189.15C497.17,189.15,586.58,136.07,560.65,106.11Z" transform="matrix(1 0 0 1 -227.18 0)" fill="rgb(47,46,65)" stroke="none" stroke-width="1"/></g></g></g><g id="enGdabJryAT8" transform="matrix(0.998496 0.054828 -0.054828 0.998496 19.9803 -13.148184)"><g id="enGdabJryAT9"><g id="enGdabJryAT10" transform="matrix(0.994728 -0.10255 0.10255 0.994728 -35.327764 27.480802)"><g id="enGdabJryAT11"><g id="enGdabJryAT12_tr" transform="translate(249.604423,357.325409) rotate(4.115211)"><g id="enGdabJryAT12" transform="translate(-249.604423,-357.325409)"><path id="enGdabJryAT13" d="M444.5,295.57C446.5,314.57,459.5,366.57,459.5,366.57L486.5,362.57C486.5,362.57,489.5,322.57,479.5,307.57L527.5,280.57L472.5,255.57C472.5,255.57,442.5,276.57,444.5,295.57" transform="matrix(1 0 0 1 -227.18 0)" fill="rgb(197,197,197)" stroke="none" stroke-width="1"/><path id="enGdabJryAT14" d="M486.5,357.57L457.5,363.57L462.65,384.75C465.190224,395.175895,465.47999,406.023358,463.5,416.57L463.5,416.57C463.5,416.57,493.5,424.57,493.5,420.57C493.5,416.57,486.5,400.57,488.5,389.57C490.5,378.57,486.5,357.57,486.5,357.57Z" transform="matrix(1 0 0 1 -227.18 0)" fill="rgb(122,122,122)" stroke="none" stroke-width="1"/><path id="enGdabJryAT15" d="M501.5,432.57C500.5,428.57,492.19,410.43,491.85,413.5C491.51,416.57,475.5,421.57,469.5,415.57C469.5,415.57,461.5,408.57,458.5,415.57C455.5,422.57,449.5,434.57,449.5,434.57C449.5,434.57,422.5,447.57,426.5,454.57C427.31,455.98,429.55,456.57,432.61,456.63C432.538975,456.815208,432.501719,457.011647,432.5,457.21L432.5,457.92C432.5,458.83127,433.23873,459.57,434.15,459.57L434.85,459.57C435.76127,459.57,436.5,458.83127,436.5,457.92L436.5,457.21C436.500821,456.955582,436.439002,456.704873,436.32,456.48C437.14,456.41,437.99,456.31,438.86,456.2C438.62956,456.482575,438.502549,456.835384,438.5,457.2L438.5,457.91C438.5,458.82127,439.23873,459.56,440.15,459.56L440.85,459.56C441.76127,459.56,442.5,458.82127,442.5,457.91L442.5,457.2C442.497387,456.60434,442.172004,456.056931,441.65,455.77C443.95,455.38,446.35,454.9,448.74,454.35C448.582327,454.605421,448.499199,454.899834,448.5,455.2L448.5,455.91C448.5,456.82127,449.23873,457.56,450.15,457.56L450.85,457.56C451.76127,457.56,452.5,456.82127,452.5,455.91L452.5,455.2C452.49866,454.544393,452.104661,453.953393,451.5,453.7C453.29,453.26,455.05,452.81,456.72,452.36C456.561116,452.611197,456.477806,452.90278,456.48,453.2L456.48,453.91C456.48,454.82127,457.21873,455.56,458.13,455.56L458.83,455.56C459.74127,455.56,460.48,454.82127,460.48,453.91L460.48,453.2C460.479661,452.48109,460.008376,451.847293,459.32,451.64C465.2,449.98,469.48,448.56,469.48,448.56C469.48,448.56,474.48,446.74,480.48,444.3L480.48,444.91C480.48,445.82127,481.21873,446.56,482.13,446.56L482.83,446.56C483.74127,446.56,484.48,445.82127,484.48,444.91L484.48,444.2C484.476957,443.694327,484.240806,443.218334,483.84,442.91C485.05,442.4,486.27,441.91,487.48,441.35L487.48,441.91C487.48,442.82127,488.21873,443.56,489.13,443.56L489.83,443.56C490.74127,443.56,491.48,442.82127,491.48,441.91L491.48,441.2C491.480301,440.66289,491.219153,440.159245,490.78,439.85C492.08,439.25,493.34,438.64,494.5,438.04C494.495141,438.093223,494.495141,438.146777,494.5,438.2L494.5,438.91C494.5,439.82127,495.23873,440.56,496.15,440.56L496.85,440.56C497.76127,440.56,498.5,439.82127,498.5,438.91L498.5,438.2C498.500727,437.417046,497.947906,436.742771,497.18,436.59C500,435,501.74,433.53,501.5,432.57Z" transform="matrix(1 0 0 1 -227.206862 -0.489191)" fill="rgb(47,46,65)" stroke="none" stroke-width="1"/></g></g></g></g></g></g><path id="enGdabJryAT16" d="M539,305.07C539,305.07,537,342.07,542,357.07C547,372.07,552,428.07,552,428.07L580,428.07C580,428.07,593,379.07,577,357.07C577,357.07,572,328.07,586,314.07Z" transform="matrix(1 0 0 1 -227.18 0)" fill="rgb(197,197,197)" stroke="none" stroke-width="1"/><path id="enGdabJryAT17" d="M532.5,202.57C532.5,202.57,467.5,243.57,467.5,256.57L519.5,299.57L537.5,279.57L535.5,309.57L591.5,320.57C591.5,320.57,611.5,244.57,610.5,241.57C609.5,238.57,606.5,194.57,606.5,194.57Z" transform="matrix(1 0 0 1 -227.18 0)" fill="rgb(47,46,65)" stroke="none" stroke-width="1"/><path id="enGdabJryAT18" d="M582,423.57L550.32,421.57C550.32,421.57,552.24,454.57,548.4,465.57C544.56,476.57,546.48,480.57,546.48,480.57L574.32,482.57Z" transform="matrix(1 0 0 1 -227.18 0)" fill="rgb(122,122,122)" stroke="none" stroke-width="1"/><path id="enGdabJryAT19" d="M582.39,496.5C582.25,492.38,577.9,472.91,576.92,475.84C575.94,478.77,559.25,480.32,554.64,473.2C554.64,473.2,548.27,464.69,543.88,470.91C539.49,477.13,531.12,487.61,531.12,487.61C531.12,487.61,502,494.7,504.45,502.38C504.95,503.93,507.01,504.98,510,505.67C509.88891,505.836961,509.810836,506.02366,509.77,506.22L509.62,506.91C509.528295,507.337134,509.610801,507.783204,509.849219,508.149278C510.087636,508.515352,510.462258,508.771172,510.89,508.86L511.58,509.01C512.007134,509.101705,512.453204,509.019199,512.819278,508.780781C513.185352,508.542364,513.441172,508.167742,513.53,507.74L513.68,507.05C513.735169,506.803044,513.735169,506.546956,513.68,506.3C514.49,506.4,515.34,506.48,516.22,506.55C515.930033,506.780461,515.731528,507.106577,515.66,507.47L515.51,508.16C515.418041,508.585712,515.499194,509.030519,515.735563,509.396329C515.971932,509.762138,516.344103,510.018903,516.77,510.11L517.47,510.26C518.349772,510.439092,519.210013,509.877484,519.4,509L519.55,508.3C519.671647,507.714263,519.464702,507.108757,519.01,506.72C521.35,506.83,523.8,506.85,526.25,506.82C526.041515,507.036853,525.89628,507.306575,525.83,507.6L525.68,508.29C525.494849,509.178686,526.062333,510.050021,526.95,510.24L527.64,510.39C528.074154,510.493974,528.531911,510.417587,528.90878,510.178276C529.285649,509.938964,529.549462,509.557154,529.64,509.12L529.78,508.43C529.918362,507.795546,529.666939,507.139488,529.14,506.76C530.98,506.7,532.8,506.63,534.53,506.53C534.323525,506.748312,534.178605,507.01745,534.11,507.31L533.97,508C533.875237,508.425946,533.955216,508.872102,534.192035,509.238608C534.428854,509.605114,534.802738,509.861363,535.23,509.95L535.93,510.1C536.36273,510.204204,536.819206,510.129161,537.195801,509.891906C537.572396,509.654651,537.837164,509.275311,537.93,508.84L538.08,508.14C538.223834,507.43661,537.896325,506.720944,537.27,506.37C543.36,505.98,547.85,505.48,547.85,505.48C547.85,505.48,553.09,504.74,559.49,503.61L559.37,504.2C559.265796,504.63273,559.340839,505.089206,559.578094,505.465801C559.815349,505.842396,560.194689,506.107164,560.63,506.2L561.32,506.34C561.75273,506.444204,562.209206,506.369161,562.585801,506.131906C562.962396,505.894651,563.227164,505.515311,563.32,505.08L563.46,504.38C563.536723,503.872859,563.365663,503.359679,563,503C564.29,502.75,565.59,502.5,566.88,502.23L566.77,502.78C566.678041,503.205712,566.759194,503.650519,566.995563,504.016329C567.231932,504.382138,567.604103,504.638903,568.03,504.73L568.73,504.88C569.618686,505.065151,570.490021,504.497667,570.68,503.61L570.83,502.92C570.941824,502.395519,570.788515,501.849591,570.42,501.46C571.82,501.13,573.18,500.8,574.42,500.46C574.42,500.46,574.42,500.56,574.42,500.61L574.27,501.3C574.16866,501.732535,574.244919,502.187642,574.48172,502.563516C574.718521,502.939391,575.096102,503.204665,575.53,503.3L576.23,503.45C576.664154,503.553974,577.121911,503.477587,577.49878,503.238276C577.875649,502.998964,578.139462,502.617154,578.23,502.18L578.38,501.49C578.537923,500.724039,578.143127,499.95107,577.43,499.63C580.4,498.54,582.42,497.5,582.39,496.5Z" transform="matrix(1 0 0 1 -227.18 0)" fill="rgb(47,46,65)" stroke="none" stroke-width="1"/><circle id="enGdabJryAT20" r="29" transform="matrix(1 0 0 1 305.32 43.57)" fill="rgb(197,197,197)" stroke="none" stroke-width="1"/><path id="enGdabJryAT21" d="M558.5,40.57C558.5,40.57,574.5,60.57,582.5,59.57L547.5,86.57C547.5,86.57,543.5,69.57,538.5,67.57C533.5,65.57,558.5,40.57,558.5,40.57Z" transform="matrix(1 0 0 1 -227.18 0)" fill="rgb(197,197,197)" stroke="none" stroke-width="1"/><path id="enGdabJryAT22" d="M621,189.07C621,189.07,621,78.72,602.49,69.21C583.98,59.7,571.75,54.29,571.75,54.29L571.75,54.29C571.189774,61.614759,567.557074,68.360684,561.75,72.86C555.62,77.59,549.5,81.52,546.09,81.53L545.98,81.07L545.56,79.88L535.5,95.57C535.5,95.57,526.5,97.57,523.5,103.57C521.88,106.81,529.5,139.49,525,169.07C521.16,194.16,505,216.81,504.5,219.57C503.72,224.22,523.41,212.02,532.28,206.32L532.5,206.57C532.5,206.57,527.5,208.57,537.5,205.57C543.17,203.87,551.08,203.77,556.87,204.01C556.87,205.75,556.87,207.13,557,208.07C558,218.07,608,232.07,615,229.07C622,226.07,621,189.07,621,189.07Z" transform="matrix(1 0 0 1 -227.18 0)" fill="rgb(47,46,65)" stroke="none" stroke-width="1"/><path id="enGdabJryAT23" d="M586,227.07C586,227.07,556,254.07,576,259.07C596,264.07,604,231.07,604,231.07Z" transform="matrix(1 0 0 1 -227.18 0)" fill="rgb(197,197,197)" stroke="none" stroke-width="1"/><path id="enGdabJryAT24" d="M551,297.07C551,297.07,565,284.07,573,291.07C581,298.07,586,303.07,586,303.07C586,303.07,563,289.07,551,297.07Z" transform="matrix(1 0 0 1 -227.18 0)" fill="rgb(122,122,122)" stroke="none" stroke-width="1"/><path id="enGdabJryAT25" d="M613.44,82.93C603.53,63.01,573.37,73.88,578.27,95.58C578.34,95.91,578.42,96.24,578.5,96.58C583.669545,117.128739,592.110689,136.712194,603.5,154.58L592.5,203.58L580.5,228.58L605.5,234.58L636.5,159.58C636.5,159.58,628,112.09,613.44,82.93Z" transform="matrix(1 0 0 1 -227.18 0)" fill="rgb(47,46,65)" stroke="none" stroke-width="1"/><polygon id="enGdabJryAT26" style="isolation:isolate" points="371.82,156.06 352.82,228.06 368.82,194.06 371.82,156.06" opacity="0.2" fill="rgb(0,0,0)" stroke="none" stroke-width="1"/><path id="enGdabJryAT27" d="M550.71,9.76C550.71,9.76,534.71,-7.12,518.55,3.51C502.39,14.14,494.76,24.51,496.34,31.65C497.92,38.79,502.6,48.84,502.6,48.84C502.6,48.84,499.69,33.95,513.05,32.84C526.41,31.73,544.87,22.84,544.87,22.84L557.36,49.51C557.36,49.51,559.12,43.33,564.02,45.1C568.92,46.87,565.12,11.74,550.71,9.76Z" transform="matrix(1 0 0 1 -227.18 0)" fill="rgb(47,46,65)" stroke="none" stroke-width="1"/><g id="enGdabJryAT28" transform="matrix(0.695627 0 0 0.695627 52.845525 117.532036)"><g id="enGdabJryAT29"><g id="enGdabJryAT30_to" transform="translate(212.041403,413.273093)"><g id="enGdabJryAT30_tr" transform="rotate(336.835838)"><g id="enGdabJryAT30" transform="translate(-45.904999,-391.053025)"><path id="enGdabJryAT31" d="M318,391.07C318.000162,393.603117,317.789434,396.13185,317.37,398.63L317.37,398.63C315.047429,412.248796,306.597823,424.045987,294.451395,430.628555C282.304966,437.211123,267.807999,437.84947,255.13,432.36L255.13,432.36C253.279506,431.558982,251.485399,430.63353,249.76,429.59C238.967829,423.079059,231.392652,412.34907,228.87,400C228.291046,397.075464,227.999657,394.101292,228,391.12C228,389.76,228.06,388.41,228.18,387.12L228.18,387.12C230.293412,363.256996,250.73178,345.233199,274.671741,346.120753C298.611702,347.008307,317.659362,366.496014,318,390.45L318,390.45C318,390.67,318,390.86,318,391.07Z" transform="matrix(1 0 0 1 -226.365 0)" fill="rgb(81,81,81)" stroke="none" stroke-width="1"/><path id="enGdabJryAT32" d="M284.08,376L263.92,376L253.85,358.55L260.68,346.71L261.08,346.6C269.732421,344.286638,278.871347,344.543779,287.38,347.34L287.75,347.46L294.15,358.55ZM265.08,374L282.92,374L291.85,358.55L286.4,349.12C278.49177,346.609548,270.037463,346.370472,262,348.43L256.15,358.55Z" transform="matrix(1 0 0 1 -227.18 0)" fill="rgb(255,255,255)" stroke="none" stroke-width="1"/><path id="enGdabJryAT33" d="M283.08,412L262.92,412L252.85,394.54L262.92,377.09L283.08,377.09L293.15,394.54ZM264.08,410L281.92,410L290.85,394.54L281.92,379.09L264.08,379.09L255.15,394.54Z" transform="matrix(1 0 0 1 -227.18 0)" fill="rgb(255,255,255)" stroke="none" stroke-width="1"/><path id="enGdabJryAT34" d="M273,437.07C266.713719,437.08091,260.493228,435.790507,254.73,433.28L253.73,432.84L263.95,415.12L284.11,415.12L293.9,432.12L292.9,432.59C286.689712,435.565851,279.886408,437.097449,273,437.07ZM256.56,431.88C267.66996,436.357444,280.125159,436.111879,291.05,431.2L282.92,417.12L265.08,417.12Z" transform="matrix(1 0 0 1 -227.18 0)" fill="rgb(255,255,255)" stroke="none" stroke-width="1"/><path id="enGdabJryAT35" d="M317.08,394L296.92,394L286.85,376.55L296.92,359.09L306.1,359.09L306.4,359.41C314.355205,367.786298,318.852097,378.858868,318.99,390.41L318.99,390.7ZM298.08,392L315.92,392L316.99,390.16C316.790949,379.352827,312.606428,369.000143,305.24,361.09L298.08,361.09L289.15,376.55Z" transform="matrix(1 0 0 1 -227.18 0)" fill="rgb(255,255,255)" stroke="none" stroke-width="1"/><path id="enGdabJryAT36" d="M296.65,430.55L286.85,413.55L296.92,396.09L317.08,396.09L318.37,398.33L318.37,398.77C316.166708,411.667108,308.586892,423.020473,297.52,430ZM289.15,413.55L297.33,427.7C307.347221,421.059443,314.212139,410.610316,316.33,398.78L315.93,398.09L298.08,398.09Z" transform="matrix(1 0 0 1 -227.18 0)" fill="rgb(255,255,255)" stroke="none" stroke-width="1"/><path id="enGdabJryAT37" d="M250.11,431L249.23,430.47C238.188202,423.798497,230.447901,412.804659,227.89,400.16L227.82,399.79L229.92,396.14L250.08,396.14L260.15,413.6ZM229.93,400.14C232.387708,411.728774,239.404575,421.841424,249.4,428.2L257.85,413.58L248.92,398.12L231.08,398.12Z" transform="matrix(1 0 0 1 -227.18 0)" fill="rgb(255,255,255)" stroke="none" stroke-width="1"/><path id="enGdabJryAT38" d="M250.08,392L229.92,392L227.18,387.26L227.18,387C228.166737,375.664825,233.331068,365.100934,241.67,357.36L241.96,357.09L250.08,357.09L260.15,374.55ZM231.08,390L248.92,390L257.85,374.55L248.92,359.09L242.75,359.09C235.027236,366.381385,230.212605,376.227393,229.2,386.8Z" transform="matrix(1 0 0 1 -227.18 0)" fill="rgb(255,255,255)" stroke="none" stroke-width="1"/></g></g></g></g></g><path id="enGdabJryAT39" d="" transform="matrix(1 0 0 1 -227.18 0)" fill="rgb(255,184,184)" stroke="none" stroke-width="1"/></svg>