<svg id="eJVP0ixBF2b1" xmlns="http://www.w3.org/2000/svg" xmlns:xlink="http://www.w3.org/1999/xlink" viewBox="0 0 409.32 510.43" shape-rendering="geometricPrecision" text-rendering="geometricPrecision"><path id="eJVP0ixBF2b2" d="M544,505.07C547.12,501.13,551.23,508.96,555.35,506.07L532.55,506.07C537.19,508.64,540.81,500.86,544,505.07Z" transform="matrix(1 0 0 1 -227.18 0)" fill="none" stroke="none" stroke-width="1"/><path id="eJVP0ixBF2b3" d="M619,506.07L615,506.07C615.84,506.66,616.69,507.25,617.49,507.89C618,507.27,618.48,506.67,619,506.07Z" transform="matrix(1 0 0 1 -227.18 0)" fill="none" stroke="none" stroke-width="1"/><g id="eJVP0ixBF2b4"><g id="eJVP0ixBF2b5" transform="matrix(0.999801 -0.019958 0.019958 0.999801 -2.896937 4.930265)"><path id="eJVP0ixBF2b6" d="M413.34,180.24C413.34,180.24,374.81,168.24,380.72,187.98C386.63,207.72,419.1,197.76,419.1,197.76Z" transform="matrix(1 0 0 1 -227.18 0)" fill="rgb(197,197,197)" stroke="none" stroke-width="1"/><path id="eJVP0ixBF2b7" d="M560.65,106.11C560.65,106.11,540.9,79.11,521.71,107.11C502.52,135.11,484.61,158.23,484.61,158.23L436.87,173.8L409.25,176.25L416.85,200.8L497.17,189.15C497.17,189.15,586.58,136.07,560.65,106.11Z" transform="matrix(1 0 0 1 -227.18 0)" fill="rgb(47,46,65)" stroke="none" stroke-width="1"/></g></g><g id="eJVP0ixBF2b8" transform="matrix(0.998496 0.054828 -0.054828 0.998496 19.9803 -13.148184)"><g id="eJVP0ixBF2b9"><g id="eJVP0ixBF2b10" transform="matrix(0.994728 -0.10255 0.10255 0.994728 -35.327764 27.480802)"><g id="eJVP0ixBF2b11"><g id="eJVP0ixBF2b12" transform="matrix(0.997422 0.071762 -0.071762 0.997422 26.286012 -16.990905)"><path id="eJVP0ixBF2b13" d="M444.5,295.57C446.5,314.57,459.5,366.57,459.5,366.57L486.5,362.57C486.5,362.57,489.5,322.57,479.5,307.57L527.5,280.57L472.5,255.57C472.5,255.57,442.5,276.57,444.5,295.57" transform="matrix(1 0 0 1 -227.18 0)" fill="rgb(197,197,197)" stroke="none" stroke-width="1"/><path id="eJVP0ixBF2b14" d="M486.5,357.57L457.5,363.57L462.65,384.75C465.190224,395.175895,465.47999,406.023358,463.5,416.57L463.5,416.57C463.5,416.57,493.5,424.57,493.5,420.57C493.5,416.57,486.5,400.57,488.5,389.57C490.5,378.57,486.5,357.57,486.5,357.57Z" transform="matrix(1 0 0 1 -227.18 0)" fill="rgb(122,122,122)" stroke="none" stroke-width="1"/><path id="eJVP0ixBF2b15" d="M501.5,432.57C500.5,428.57,492.19,410.43,491.85,413.5C491.51,416.57,475.5,421.57,469.5,415.57C469.5,415.57,461.5,408.57,458.5,415.57C455.5,422.57,449.5,434.57,449.5,434.57C449.5,434.57,422.5,447.57,426.5,454.57C427.31,455.98,429.55,456.57,432.61,456.63C432.538975,456.815208,432.501719,457.011647,432.5,457.21L432.5,457.92C432.5,458.83127,433.23873,459.57,434.15,459.57L434.85,459.57C435.76127,459.57,436.5,458.83127,436.5,457.92L436.5,457.21C436.500821,456.955582,436.439002,456.704873,436.32,456.48C437.14,456.41,437.99,456.31,438.86,456.2C438.62956,456.482575,438.502549,456.835384,438.5,457.2L438.5,457.91C438.5,458.82127,439.23873,459.56,440.15,459.56L440.85,459.56C441.76127,459.56,442.5,458.82127,442.5,457.91L442.5,457.2C442.497387,456.60434,442.172004,456.056931,441.65,455.77C443.95,455.38,446.35,454.9,448.74,454.35C448.582327,454.605421,448.499199,454.899834,448.5,455.2L448.5,455.91C448.5,456.82127,449.23873,457.56,450.15,457.56L450.85,457.56C451.76127,457.56,452.5,456.82127,452.5,455.91L452.5,455.2C452.49866,454.544393,452.104661,453.953393,451.5,453.7C453.29,453.26,455.05,452.81,456.72,452.36C456.561116,452.611197,456.477806,452.90278,456.48,453.2L456.48,453.91C456.48,454.82127,457.21873,455.56,458.13,455.56L458.83,455.56C459.74127,455.56,460.48,454.82127,460.48,453.91L460.48,453.2C460.479661,452.48109,460.008376,451.847293,459.32,451.64C465.2,449.98,469.48,448.56,469.48,448.56C469.48,448.56,474.48,446.74,480.48,444.3L480.48,444.91C480.48,445.82127,481.21873,446.56,482.13,446.56L482.83,446.56C483.74127,446.56,484.48,445.82127,484.48,444.91L484.48,444.2C484.476957,443.694327,484.240806,443.218334,483.84,442.91C485.05,442.4,486.27,441.91,487.48,441.35L487.48,441.91C487.48,442.82127,488.21873,443.56,489.13,443.56L489.83,443.56C490.74127,443.56,491.48,442.82127,491.48,441.91L491.48,441.2C491.480301,440.66289,491.219153,440.159245,490.78,439.85C492.08,439.25,493.34,438.64,494.5,438.04C494.495141,438.093223,494.495141,438.146777,494.5,438.2L494.5,438.91C494.5,439.82127,495.23873,440.56,496.15,440.56L496.85,440.56C497.76127,440.56,498.5,439.82127,498.5,438.91L498.5,438.2C498.500727,437.417046,497.947906,436.742771,497.18,436.59C500,435,501.74,433.53,501.5,432.57Z" transform="matrix(1 0 0 1 -227.206862 -0.489191)" fill="rgb(47,46,65)" stroke="none" stroke-width="1"/></g></g></g></g></g><path id="eJVP0ixBF2b16" d="M539,305.07C539,305.07,537,342.07,542,357.07C547,372.07,552,428.07,552,428.07L580,428.07C580,428.07,593,379.07,577,357.07C577,357.07,572,328.07,586,314.07Z" transform="matrix(1 0 0 1 -227.18 0)" fill="rgb(197,197,197)" stroke="none" stroke-width="1"/><path id="eJVP0ixBF2b17" d="M532.5,202.57C532.5,202.57,467.5,243.57,467.5,256.57L519.5,299.57L537.5,279.57L535.5,309.57L591.5,320.57C591.5,320.57,611.5,244.57,610.5,241.57C609.5,238.57,606.5,194.57,606.5,194.57Z" transform="matrix(1 0 0 1 -227.18 0)" fill="rgb(47,46,65)" stroke="none" stroke-width="1"/><path id="eJVP0ixBF2b18" d="M582,423.57L550.32,421.57C550.32,421.57,552.24,454.57,548.4,465.57C544.56,476.57,546.48,480.57,546.48,480.57L574.32,482.57Z" transform="matrix(1 0 0 1 -227.18 0)" fill="rgb(122,122,122)" stroke="none" stroke-width="1"/><path id="eJVP0ixBF2b19" d="M582.39,496.5C582.25,492.38,577.9,472.91,576.92,475.84C575.94,478.77,559.25,480.32,554.64,473.2C554.64,473.2,548.27,464.69,543.88,470.91C539.49,477.13,531.12,487.61,531.12,487.61C531.12,487.61,502,494.7,504.45,502.38C504.95,503.93,507.01,504.98,510,505.67C509.88891,505.836961,509.810836,506.02366,509.77,506.22L509.62,506.91C509.528295,507.337134,509.610801,507.783204,509.849219,508.149278C510.087636,508.515352,510.462258,508.771172,510.89,508.86L511.58,509.01C512.007134,509.101705,512.453204,509.019199,512.819278,508.780781C513.185352,508.542364,513.441172,508.167742,513.53,507.74L513.68,507.05C513.735169,506.803044,513.735169,506.546956,513.68,506.3C514.49,506.4,515.34,506.48,516.22,506.55C515.930033,506.780461,515.731528,507.106577,515.66,507.47L515.51,508.16C515.418041,508.585712,515.499194,509.030519,515.735563,509.396329C515.971932,509.762138,516.344103,510.018903,516.77,510.11L517.47,510.26C518.349772,510.439092,519.210013,509.877484,519.4,509L519.55,508.3C519.671647,507.714263,519.464702,507.108757,519.01,506.72C521.35,506.83,523.8,506.85,526.25,506.82C526.041515,507.036853,525.89628,507.306575,525.83,507.6L525.68,508.29C525.494849,509.178686,526.062333,510.050021,526.95,510.24L527.64,510.39C528.074154,510.493974,528.531911,510.417587,528.90878,510.178276C529.285649,509.938964,529.549462,509.557154,529.64,509.12L529.78,508.43C529.918362,507.795546,529.666939,507.139488,529.14,506.76C530.98,506.7,532.8,506.63,534.53,506.53C534.323525,506.748312,534.178605,507.01745,534.11,507.31L533.97,508C533.875237,508.425946,533.955216,508.872102,534.192035,509.238608C534.428854,509.605114,534.802738,509.861363,535.23,509.95L535.93,510.1C536.36273,510.204204,536.819206,510.129161,537.195801,509.891906C537.572396,509.654651,537.837164,509.275311,537.93,508.84L538.08,508.14C538.223834,507.43661,537.896325,506.720944,537.27,506.37C543.36,505.98,547.85,505.48,547.85,505.48C547.85,505.48,553.09,504.74,559.49,503.61L559.37,504.2C559.265796,504.63273,559.340839,505.089206,559.578094,505.465801C559.815349,505.842396,560.194689,506.107164,560.63,506.2L561.32,506.34C561.75273,506.444204,562.209206,506.369161,562.585801,506.131906C562.962396,505.894651,563.227164,505.515311,563.32,505.08L563.46,504.38C563.536723,503.872859,563.365663,503.359679,563,503C564.29,502.75,565.59,502.5,566.88,502.23L566.77,502.78C566.678041,503.205712,566.759194,503.650519,566.995563,504.016329C567.231932,504.382138,567.604103,504.638903,568.03,504.73L568.73,504.88C569.618686,505.065151,570.490021,504.497667,570.68,503.61L570.83,502.92C570.941824,502.395519,570.788515,501.849591,570.42,501.46C571.82,501.13,573.18,500.8,574.42,500.46C574.42,500.46,574.42,500.56,574.42,500.61L574.27,501.3C574.16866,501.732535,574.244919,502.187642,574.48172,502.563516C574.718521,502.939391,575.096102,503.204665,575.53,503.3L576.23,503.45C576.664154,503.553974,577.121911,503.477587,577.49878,503.238276C577.875649,502.998964,578.139462,502.617154,578.23,502.18L578.38,501.49C578.537923,500.724039,578.143127,499.95107,577.43,499.63C580.4,498.54,582.42,497.5,582.39,496.5Z" transform="matrix(1 0 0 1 -227.18 0)" fill="rgb(47,46,65)" stroke="none" stroke-width="1"/><circle id="eJVP0ixBF2b20" r="29" transform="matrix(1 0 0 1 305.32 43.57)" fill="rgb(197,197,197)" stroke="none" stroke-width="1"/><path id="eJVP0ixBF2b21" d="M558.5,40.57C558.5,40.57,574.5,60.57,582.5,59.57L547.5,86.57C547.5,86.57,543.5,69.57,538.5,67.57C533.5,65.57,558.5,40.57,558.5,40.57Z" transform="matrix(1 0 0 1 -227.18 0)" fill="rgb(197,197,197)" stroke="none" stroke-width="1"/><path id="eJVP0ixBF2b22" d="M621,189.07C621,189.07,621,78.72,602.49,69.21C583.98,59.7,571.75,54.29,571.75,54.29L571.75,54.29C571.189774,61.614759,567.557074,68.360684,561.75,72.86C555.62,77.59,549.5,81.52,546.09,81.53L545.98,81.07L545.56,79.88L535.5,95.57C535.5,95.57,526.5,97.57,523.5,103.57C521.88,106.81,529.5,139.49,525,169.07C521.16,194.16,505,216.81,504.5,219.57C503.72,224.22,523.41,212.02,532.28,206.32L532.5,206.57C532.5,206.57,527.5,208.57,537.5,205.57C543.17,203.87,551.08,203.77,556.87,204.01C556.87,205.75,556.87,207.13,557,208.07C558,218.07,608,232.07,615,229.07C622,226.07,621,189.07,621,189.07Z" transform="matrix(1 0 0 1 -227.18 0)" fill="rgb(47,46,65)" stroke="none" stroke-width="1"/><path id="eJVP0ixBF2b23" d="M586,227.07C586,227.07,556,254.07,576,259.07C596,264.07,604,231.07,604,231.07Z" transform="matrix(1 0 0 1 -227.18 0)" fill="rgb(197,197,197)" stroke="none" stroke-width="1"/><path id="eJVP0ixBF2b24" d="M551,297.07C551,297.07,565,284.07,573,291.07C581,298.07,586,303.07,586,303.07C586,303.07,563,289.07,551,297.07Z" transform="matrix(1 0 0 1 -227.18 0)" fill="rgb(122,122,122)" stroke="none" stroke-width="1"/><path id="eJVP0ixBF2b25" d="M613.44,82.93C603.53,63.01,573.37,73.88,578.27,95.58C578.34,95.91,578.42,96.24,578.5,96.58C583.669545,117.128739,592.110689,136.712194,603.5,154.58L592.5,203.58L580.5,228.58L605.5,234.58L636.5,159.58C636.5,159.58,628,112.09,613.44,82.93Z" transform="matrix(1 0 0 1 -227.18 0)" fill="rgb(47,46,65)" stroke="none" stroke-width="1"/><polygon id="eJVP0ixBF2b26" style="isolation:isolate" points="371.82,156.06 352.82,228.06 368.82,194.06 371.82,156.06" opacity="0.2" fill="rgb(0,0,0)" stroke="none" stroke-width="1"/><path id="eJVP0ixBF2b27" d="M550.71,9.76C550.71,9.76,534.71,-7.12,518.55,3.51C502.39,14.14,494.76,24.51,496.34,31.65C497.92,38.79,502.6,48.84,502.6,48.84C502.6,48.84,499.69,33.95,513.05,32.84C526.41,31.73,544.87,22.84,544.87,22.84L557.36,49.51C557.36,49.51,559.12,43.33,564.02,45.1C568.92,46.87,565.12,11.74,550.71,9.76Z" transform="matrix(1 0 0 1 -227.18 0)" fill="rgb(47,46,65)" stroke="none" stroke-width="1"/><g id="eJVP0ixBF2b28" transform="matrix(0.695627 0 0 0.695627 52.845525 117.532036)"><g id="eJVP0ixBF2b29"><g id="eJVP0ixBF2b30" transform="matrix(0.919382 -0.393367 0.393367 0.919382 16.009868 71.803658)"><path id="eJVP0ixBF2b31" d="M318,391.07C318.000162,393.603117,317.789434,396.13185,317.37,398.63L317.37,398.63C315.047429,412.248796,306.597823,424.045987,294.451395,430.628555C282.304966,437.211123,267.807999,437.84947,255.13,432.36L255.13,432.36C253.279506,431.558982,251.485399,430.63353,249.76,429.59C238.967829,423.079059,231.392652,412.34907,228.87,400C228.291046,397.075464,227.999657,394.101292,228,391.12C228,389.76,228.06,388.41,228.18,387.12L228.18,387.12C230.293412,363.256996,250.73178,345.233199,274.671741,346.120753C298.611702,347.008307,317.659362,366.496014,318,390.45L318,390.45C318,390.67,318,390.86,318,391.07Z" transform="matrix(1 0 0 1 -226.365 0)" fill="rgb(81,81,81)" stroke="none" stroke-width="1"/><path id="eJVP0ixBF2b32" d="M284.08,376L263.92,376L253.85,358.55L260.68,346.71L261.08,346.6C269.732421,344.286638,278.871347,344.543779,287.38,347.34L287.75,347.46L294.15,358.55ZM265.08,374L282.92,374L291.85,358.55L286.4,349.12C278.49177,346.609548,270.037463,346.370472,262,348.43L256.15,358.55Z" transform="matrix(1 0 0 1 -227.18 0)" fill="rgb(255,255,255)" stroke="none" stroke-width="1"/><path id="eJVP0ixBF2b33" d="M283.08,412L262.92,412L252.85,394.54L262.92,377.09L283.08,377.09L293.15,394.54ZM264.08,410L281.92,410L290.85,394.54L281.92,379.09L264.08,379.09L255.15,394.54Z" transform="matrix(1 0 0 1 -227.18 0)" fill="rgb(255,255,255)" stroke="none" stroke-width="1"/><path id="eJVP0ixBF2b34" d="M273,437.07C266.713719,437.08091,260.493228,435.790507,254.73,433.28L253.73,432.84L263.95,415.12L284.11,415.12L293.9,432.12L292.9,432.59C286.689712,435.565851,279.886408,437.097449,273,437.07ZM256.56,431.88C267.66996,436.357444,280.125159,436.111879,291.05,431.2L282.92,417.12L265.08,417.12Z" transform="matrix(1 0 0 1 -227.18 0)" fill="rgb(255,255,255)" stroke="none" stroke-width="1"/><path id="eJVP0ixBF2b35" d="M317.08,394L296.92,394L286.85,376.55L296.92,359.09L306.1,359.09L306.4,359.41C314.355205,367.786298,318.852097,378.858868,318.99,390.41L318.99,390.7ZM298.08,392L315.92,392L316.99,390.16C316.790949,379.352827,312.606428,369.000143,305.24,361.09L298.08,361.09L289.15,376.55Z" transform="matrix(1 0 0 1 -227.18 0)" fill="rgb(255,255,255)" stroke="none" stroke-width="1"/><path id="eJVP0ixBF2b36" d="M296.65,430.55L286.85,413.55L296.92,396.09L317.08,396.09L318.37,398.33L318.37,398.77C316.166708,411.667108,308.586892,423.020473,297.52,430ZM289.15,413.55L297.33,427.7C307.347221,421.059443,314.212139,410.610316,316.33,398.78L315.93,398.09L298.08,398.09Z" transform="matrix(1 0 0 1 -227.18 0)" fill="rgb(255,255,255)" stroke="none" stroke-width="1"/><path id="eJVP0ixBF2b37" d="M250.11,431L249.23,430.47C238.188202,423.798497,230.447901,412.804659,227.89,400.16L227.82,399.79L229.92,396.14L250.08,396.14L260.15,413.6ZM229.93,400.14C232.387708,411.728774,239.404575,421.841424,249.4,428.2L257.85,413.58L248.92,398.12L231.08,398.12Z" transform="matrix(1 0 0 1 -227.18 0)" fill="rgb(255,255,255)" stroke="none" stroke-width="1"/><path id="eJVP0ixBF2b38" d="M250.08,392L229.92,392L227.18,387.26L227.18,387C228.166737,375.664825,233.331068,365.100934,241.67,357.36L241.96,357.09L250.08,357.09L260.15,374.55ZM231.08,390L248.92,390L257.85,374.55L248.92,359.09L242.75,359.09C235.027236,366.381385,230.212605,376.227393,229.2,386.8Z" transform="matrix(1 0 0 1 -227.18 0)" fill="rgb(255,255,255)" stroke="none" stroke-width="1"/></g></g></g><path id="eJVP0ixBF2b39" d="" transform="matrix(1 0 0 1 -227.18 0)" fill="rgb(255,184,184)" stroke="none" stroke-width="1"/><script><![CDATA[!function(t,n){"object"==typeof exports&&"undefined"!=typeof module?module.exports=n(require("vue")):"function"==typeof define&&define.amd?define(["vue"],n):((t="undefined"!=typeof globalThis?globalThis:t||self).__SVGATOR_PLAYER__=t.__SVGATOR_PLAYER__||{},t.__SVGATOR_PLAYER__["5c7f360c"]=n())}(this,(function(){"use strict";function t(t,n){var r=Object.keys(t);if(Object.getOwnPropertySymbols){var e=Object.getOwnPropertySymbols(t);n&&(e=e.filter((function(n){return Object.getOwnPropertyDescriptor(t,n).enumerable}))),r.push.apply(r,e)}return r}function n(n){for(var r=1;r<arguments.length;r++){var e=null!=arguments[r]?arguments[r]:{};r%2?t(Object(e),!0).forEach((function(t){u(n,t,e[t])})):Object.getOwnPropertyDescriptors?Object.defineProperties(n,Object.getOwnPropertyDescriptors(e)):t(Object(e)).forEach((function(t){Object.defineProperty(n,t,Object.getOwnPropertyDescriptor(e,t))}))}return n}function r(t){return(r="function"==typeof Symbol&&"symbol"==typeof Symbol.iterator?function(t){return typeof t}:function(t){return t&&"function"==typeof Symbol&&t.constructor===Symbol&&t!==Symbol.prototype?"symbol":typeof t})(t)}function e(t,n){if(!(t instanceof n))throw new TypeError("Cannot call a class as a function")}function i(t,n){for(var r=0;r<n.length;r++){var e=n[r];e.enumerable=e.enumerable||!1,e.configurable=!0,"value"in e&&(e.writable=!0),Object.defineProperty(t,e.key,e)}}function o(t,n,r){return n&&i(t.prototype,n),r&&i(t,r),t}function u(t,n,r){return n in t?Object.defineProperty(t,n,{value:r,enumerable:!0,configurable:!0,writable:!0}):t[n]=r,t}function a(t){return(a=Object.setPrototypeOf?Object.getPrototypeOf:function(t){return t.__proto__||Object.getPrototypeOf(t)})(t)}function l(t,n){return(l=Object.setPrototypeOf||function(t,n){return t.__proto__=n,t})(t,n)}function f(t,n){if(n&&("object"==typeof n||"function"==typeof n))return n;if(void 0!==n)throw new TypeError("Derived constructors may only return object or undefined");return function(t){if(void 0===t)throw new ReferenceError("this hasn't been initialised - super() hasn't been called");return t}(t)}function s(t){var n=function(){if("undefined"==typeof Reflect||!Reflect.construct)return!1;if(Reflect.construct.sham)return!1;if("function"==typeof Proxy)return!0;try{return Boolean.prototype.valueOf.call(Reflect.construct(Boolean,[],(function(){}))),!0}catch(t){return!1}}();return function(){var r,e=a(t);if(n){var i=a(this).constructor;r=Reflect.construct(e,arguments,i)}else r=e.apply(this,arguments);return f(this,r)}}function c(t,n,r){return(c="undefined"!=typeof Reflect&&Reflect.get?Reflect.get:function(t,n,r){var e=function(t,n){for(;!Object.prototype.hasOwnProperty.call(t,n)&&null!==(t=a(t)););return t}(t,n);if(e){var i=Object.getOwnPropertyDescriptor(e,n);return i.get?i.get.call(r):i.value}})(t,n,r||t)}var h=v(Math.pow(10,-6));function v(t){var n=arguments.length>1&&void 0!==arguments[1]?arguments[1]:6;if(Number.isInteger(t))return t;var r=Math.pow(10,n);return Math.round((+t+Number.EPSILON)*r)/r}function y(t,n){var r=arguments.length>2&&void 0!==arguments[2]?arguments[2]:h;return Math.abs(t-n)<r}var g=Math.PI/180;function d(t){return t}function p(t,n,r){var e=1-r;return 3*r*e*(t*e+n*r)+r*r*r}function m(){var t=arguments.length>0&&void 0!==arguments[0]?arguments[0]:0,n=arguments.length>1&&void 0!==arguments[1]?arguments[1]:0,r=arguments.length>2&&void 0!==arguments[2]?arguments[2]:1,e=arguments.length>3&&void 0!==arguments[3]?arguments[3]:1;return t<0||t>1||r<0||r>1?null:y(t,n)&&y(r,e)?d:function(i){if(i<=0)return t>0?i*n/t:0===n&&r>0?i*e/r:0;if(i>=1)return r<1?1+(i-1)*(e-1)/(r-1):1===r&&t<1?1+(i-1)*(n-1)/(t-1):1;for(var o,u=0,a=1;u<a;){var l=p(t,r,o=(u+a)/2);if(y(i,l))break;l<i?u=o:a=o}return p(n,e,o)}}function b(){return 1}function w(t){return 1===t?1:0}function x(){var t=arguments.length>0&&void 0!==arguments[0]?arguments[0]:1,n=arguments.length>1&&void 0!==arguments[1]?arguments[1]:0;if(1===t){if(0===n)return w;if(1===n)return b}var r=1/t;return function(t){return t>=1?1:(t+=n*r)-t%r}}var A="undefined"!=typeof window&&/(Mac|iPhone|iPod|iPad)/i.test(window.navigator.platform);Object.freeze({Meta:A?"Control":"Meta",Ctrl:"Control",Down:"ArrowDown",Up:"ArrowUp",Left:"ArrowLeft",Right:"ArrowRight",Esc:"Escape",Delete:"Backspace",Space:"Space"});var k=Math.sin,_=Math.cos,S=Math.acos,O=Math.asin,j=Math.tan,P=Math.atan2,M=Math.PI/180,E=180/Math.PI,R=Math.sqrt,I=function(){function t(){var n=arguments.length>0&&void 0!==arguments[0]?arguments[0]:1,r=arguments.length>1&&void 0!==arguments[1]?arguments[1]:0,i=arguments.length>2&&void 0!==arguments[2]?arguments[2]:0,o=arguments.length>3&&void 0!==arguments[3]?arguments[3]:1,u=arguments.length>4&&void 0!==arguments[4]?arguments[4]:0,a=arguments.length>5&&void 0!==arguments[5]?arguments[5]:0;e(this,t),this.m=[n,r,i,o,u,a],this.i=null,this.w=null,this.s=null}return o(t,[{key:"determinant",get:function(){var t=this.m;return t[0]*t[3]-t[1]*t[2]}},{key:"isIdentity",get:function(){if(null===this.i){var t=this.m;this.i=1===t[0]&&0===t[1]&&0===t[2]&&1===t[3]&&0===t[4]&&0===t[5]}return this.i}},{key:"point",value:function(t,n){var r=this.m;return{x:r[0]*t+r[2]*n+r[4],y:r[1]*t+r[3]*n+r[5]}}},{key:"translateSelf",value:function(){var t=arguments.length>0&&void 0!==arguments[0]?arguments[0]:0,n=arguments.length>1&&void 0!==arguments[1]?arguments[1]:0;if(!t&&!n)return this;var r=this.m;return r[4]+=r[0]*t+r[2]*n,r[5]+=r[1]*t+r[3]*n,this.w=this.s=this.i=null,this}},{key:"rotateSelf",value:function(){var t=arguments.length>0&&void 0!==arguments[0]?arguments[0]:0;if(t%=360){var n=k(t*=M),r=_(t),e=this.m,i=e[0],o=e[1];e[0]=i*r+e[2]*n,e[1]=o*r+e[3]*n,e[2]=e[2]*r-i*n,e[3]=e[3]*r-o*n,this.w=this.s=this.i=null}return this}},{key:"scaleSelf",value:function(){var t=arguments.length>0&&void 0!==arguments[0]?arguments[0]:1,n=arguments.length>1&&void 0!==arguments[1]?arguments[1]:1;if(1!==t||1!==n){var r=this.m;r[0]*=t,r[1]*=t,r[2]*=n,r[3]*=n,this.w=this.s=this.i=null}return this}},{key:"skewSelf",value:function(t,n){if(n%=360,(t%=360)||n){var r=this.m,e=r[0],i=r[1],o=r[2],u=r[3];t&&(t=j(t*M),r[2]+=e*t,r[3]+=i*t),n&&(n=j(n*M),r[0]+=o*n,r[1]+=u*n),this.w=this.s=this.i=null}return this}},{key:"resetSelf",value:function(){var t=arguments.length>0&&void 0!==arguments[0]?arguments[0]:1,n=arguments.length>1&&void 0!==arguments[1]?arguments[1]:0,r=arguments.length>2&&void 0!==arguments[2]?arguments[2]:0,e=arguments.length>3&&void 0!==arguments[3]?arguments[3]:1,i=arguments.length>4&&void 0!==arguments[4]?arguments[4]:0,o=arguments.length>5&&void 0!==arguments[5]?arguments[5]:0,u=this.m;return u[0]=t,u[1]=n,u[2]=r,u[3]=e,u[4]=i,u[5]=o,this.w=this.s=this.i=null,this}},{key:"recomposeSelf",value:function(){var t=arguments.length>0&&void 0!==arguments[0]?arguments[0]:null,n=arguments.length>1&&void 0!==arguments[1]?arguments[1]:null,r=arguments.length>2&&void 0!==arguments[2]?arguments[2]:null,e=arguments.length>3&&void 0!==arguments[3]?arguments[3]:null,i=arguments.length>4&&void 0!==arguments[4]?arguments[4]:null;return this.isIdentity||this.resetSelf(),t&&(t.x||t.y)&&this.translateSelf(t.x,t.y),n&&this.rotateSelf(n),r&&(r.x&&this.skewSelf(r.x,0),r.y&&this.skewSelf(0,r.y)),!e||1===e.x&&1===e.y||this.scaleSelf(e.x,e.y),i&&(i.x||i.y)&&this.translateSelf(i.x,i.y),this}},{key:"decompose",value:function(){var t=arguments.length>0&&void 0!==arguments[0]?arguments[0]:0,n=arguments.length>1&&void 0!==arguments[1]?arguments[1]:0,r=this.m,e=r[0]*r[0]+r[1]*r[1],i=[[r[0],r[1]],[r[2],r[3]]],o=R(e);if(0===o)return{origin:{x:v(r[4]),y:v(r[5])},translate:{x:v(t),y:v(n)},scale:{x:0,y:0},skew:{x:0,y:0},rotate:0};i[0][0]/=o,i[0][1]/=o;var u=r[0]*r[3]-r[1]*r[2]<0;u&&(o=-o);var a=i[0][0]*i[1][0]+i[0][1]*i[1][1];i[1][0]-=i[0][0]*a,i[1][1]-=i[0][1]*a;var l=R(i[1][0]*i[1][0]+i[1][1]*i[1][1]);if(0===l)return{origin:{x:v(r[4]),y:v(r[5])},translate:{x:v(t),y:v(n)},scale:{x:v(o),y:0},skew:{x:0,y:0},rotate:0};i[1][0]/=l,i[1][1]/=l,a/=l;var f=0;return i[1][1]<0?(f=S(i[1][1])*E,i[0][1]<0&&(f=360-f)):f=O(i[0][1])*E,u&&(f=-f),a=P(a,R(i[0][0]*i[0][0]+i[0][1]*i[0][1]))*E,u&&(a=-a),{origin:{x:v(r[4]),y:v(r[5])},translate:{x:v(t),y:v(n)},scale:{x:v(o),y:v(l)},skew:{x:v(a),y:0},rotate:v(f)}}},{key:"toString",value:function(){var t=arguments.length>0&&void 0!==arguments[0]?arguments[0]:" ";return null===this.s&&(this.s="matrix("+this.m.map((function(t){return v(t)})).join(t)+")"),this.s}}]),t}();function N(t,n,r){return t>=.5?r:n}function B(t,n,r){return 0===t||n===r?n:t*(r-n)+n}function F(t,n,r){var e=B(t,n,r);return e<=0?0:e}function T(t,n,r){var e=B(t,n,r);return e<=0?0:e>=1?1:e}function q(t,n,r){return 0===t?n:1===t?r:{x:B(t,n.x,r.x),y:B(t,n.y,r.y)}}function L(t,n,r){var e=function(t,n,r){return Math.round(B(t,n,r))}(t,n,r);return e<=0?0:e>=255?255:e}function C(t,n,r){return 0===t?n:1===t?r:{r:L(t,n.r,r.r),g:L(t,n.g,r.g),b:L(t,n.b,r.b),a:B(t,null==n.a?1:n.a,null==r.a?1:r.a)}}function D(t,n){for(var r=[],e=0;e<t;e++)r.push(n);return r}function z(t,n){if(--n<=0)return t;var r=(t=Object.assign([],t)).length;do{for(var e=0;e<r;e++)t.push(t[e])}while(--n>0);return t}var V,G=function(){function t(n){e(this,t),this.list=n,this.length=n.length}return o(t,[{key:"setAttribute",value:function(t,n){for(var r=this.list,e=0;e<this.length;e++)r[e].setAttribute(t,n)}},{key:"removeAttribute",value:function(t){for(var n=this.list,r=0;r<this.length;r++)n[r].removeAttribute(t)}},{key:"style",value:function(t,n){for(var r=this.list,e=0;e<this.length;e++)r[e].style[t]=n}}]),t}(),Y=/-./g,U=function(t,n){return n.toUpperCase()};function $(t){return"function"==typeof t?t:N}function Q(t){return t?"function"==typeof t?t:Array.isArray(t)?function(t){var n=arguments.length>1&&void 0!==arguments[1]?arguments[1]:d;if(!Array.isArray(t))return n;switch(t.length){case 1:return x(t[0])||n;case 2:return x(t[0],t[1])||n;case 4:return m(t[0],t[1],t[2],t[3])||n}return n}(t,null):function(t,n){var r=arguments.length>2&&void 0!==arguments[2]?arguments[2]:d;switch(t){case"linear":return d;case"steps":return x(n.steps||1,n.jump||0)||r;case"bezier":case"cubic-bezier":return m(n.x1||0,n.y1||0,n.x2||0,n.y2||0)||r}return r}(t.type,t.value,null):null}function H(t,n,r){var e=arguments.length>3&&void 0!==arguments[3]&&arguments[3],i=n.length-1;if(t<=n[0].t)return e?[0,0,n[0].v]:n[0].v;if(t>=n[i].t)return e?[i,1,n[i].v]:n[i].v;var o,u=n[0],a=null;for(o=1;o<=i;o++){if(!(t>n[o].t)){a=n[o];break}u=n[o]}return null==a?e?[i,1,n[i].v]:n[i].v:u.t===a.t?e?[o,1,a.v]:a.v:(t=(t-u.t)/(a.t-u.t),u.e&&(t=u.e(t)),e?[o,t,r(t,u.v,a.v)]:r(t,u.v,a.v))}function J(t,n){var r=arguments.length>2&&void 0!==arguments[2]?arguments[2]:null;return t&&t.length?"function"!=typeof n?null:("function"!=typeof r&&(r=null),function(e){var i=H(e,t,n);return null!=i&&r&&(i=r(i)),i}):null}function Z(t,n){return t.t-n.t}function K(t,n,e,i,o){var u,a="@"===e[0],l="#"===e[0],f=V[e],s=N;switch(a?(u=e.substr(1),e=u.replace(Y,U)):l&&(e=e.substr(1)),r(f)){case"function":if(s=f(i,o,H,Q,e,a,n,t),l)return s;break;case"string":s=J(i,$(f));break;case"object":if((s=J(i,$(f.i),f.f))&&"function"==typeof f.u)return f.u(n,s,e,a,t)}return s?function(t,n,r){if(arguments.length>3&&void 0!==arguments[3]&&arguments[3])return t instanceof G?function(e){return t.style(n,r(e))}:function(e){return t.style[n]=r(e)};if(Array.isArray(n)){var e=n.length;return function(i){var o=r(i);if(null==o)for(var u=0;u<e;u++)t[u].removeAttribute(n);else for(var a=0;a<e;a++)t[a].setAttribute(n,o)}}return function(e){var i=r(e);null==i?t.removeAttribute(n):t.setAttribute(n,i)}}(n,e,s,a):null}function W(t,n,e,i){if(!i||"object"!==r(i))return null;var o=null,u=null;return Array.isArray(i)?u=function(t){if(!t||!t.length)return null;for(var n=0;n<t.length;n++)t[n].e&&(t[n].e=Q(t[n].e));return t.sort(Z)}(i):(u=i.keys,o=i.data||null),u?K(t,n,e,u,o):null}function X(t,n,r){if(!r)return null;var e=[];for(var i in r)if(r.hasOwnProperty(i)){var o=W(t,n,i,r[i]);o&&e.push(o)}return e.length?e:null}function tt(t,n){if(!n.duration||n.duration<0)return null;var r=function(t,n){if(!n)return null;var r=[];if(Array.isArray(n))for(var e=n.length,i=0;i<e;i++){var o=n[i];if(2===o.length){var u=null;if("string"==typeof o[0])u=t.getElementById(o[0]);else if(Array.isArray(o[0])){u=[];for(var a=0;a<o[0].length;a++)if("string"==typeof o[0][a]){var l=t.getElementById(o[0][a]);l&&u.push(l)}u=u.length?1===u.length?u[0]:new G(u):null}if(u){var f=X(t,u,o[1]);f&&(r=r.concat(f))}}}else for(var s in n)if(n.hasOwnProperty(s)){var c=t.getElementById(s);if(c){var h=X(t,c,n[s]);h&&(r=r.concat(h))}}return r.length?r:null}(t,n.elements);return r?function(t,n){var r=arguments.length>2&&void 0!==arguments[2]?arguments[2]:1/0,e=arguments.length>3&&void 0!==arguments[3]?arguments[3]:1,i=arguments.length>4&&void 0!==arguments[4]&&arguments[4],o=arguments.length>5&&void 0!==arguments[5]?arguments[5]:1,u=t.length,a=e>0?n:0;i&&r%2==0&&(a=n-a);var l=null;return function(f,s){var c=f%n,h=1+(f-c)/n;s*=e,i&&h%2==0&&(s=-s);var v=!1;if(h>r)c=a,v=!0,-1===o&&(c=e>0?0:n);else if(s<0&&(c=n-c),c===l)return!1;l=c;for(var y=0;y<u;y++)t[y](c);return v}}(r,n.duration,n.iterations||1/0,n.direction||1,!!n.alternate,n.fill||1):null}function nt(t){return+("0x"+(t.replace(/[^0-9a-fA-F]+/g,"")||27))}function rt(t,n,r){return!t||!r||n>t.length?t:t.substring(0,n)+rt(t.substring(n+1),r,r)}function et(t){var n=arguments.length>1&&void 0!==arguments[1]?arguments[1]:27;return!t||t%n?t%n:et(t/n,n)}function it(t,n,r){if(t&&t.length){var e=nt(r),i=nt(n),o=et(e)+5,u=rt(t,et(e,5),o);return u=u.replace(/\x7c$/g,"==").replace(/\x2f$/g,"="),u=function(t,n,r){var e=+("0x"+t.substring(0,4));t=t.substring(4);for(var i=n%e+r%27,o=[],u=0;u<t.length;u+=2)if("|"!==t[u]){var a=+("0x"+t[u]+t[u+1])-i;o.push(a)}else{var l=+("0x"+t.substring(u+1,u+1+4))-i;u+=3,o.push(l)}return String.fromCharCode.apply(String,o)}(u=(u=atob(u)).replace(/[\x41-\x5A]/g,""),i,e),u=JSON.parse(u)}}Number.isInteger||(Number.isInteger=function(t){return"number"==typeof t&&isFinite(t)&&Math.floor(t)===t}),Number.EPSILON||(Number.EPSILON=2220446049250313e-31);var ot=function(){function t(n,r){var i=arguments.length>2&&void 0!==arguments[2]?arguments[2]:{};e(this,t),this._id=0,this._running=!1,this._rollingBack=!1,this._animations=n,this.duration=r.duration,this.alternate=r.alternate,this.fill=r.fill,this.iterations=r.iterations,this.direction=i.direction||1,this.speed=i.speed||1,this.fps=i.fps||100,this.offset=i.offset||0,this.rollbackStartOffset=0}return o(t,[{key:"_rollback",value:function(){var t=this,n=1/0,r=null;this.rollbackStartOffset=this.offset,this._rollingBack||(this._rollingBack=!0,this._running=!0);this._id=window.requestAnimationFrame((function e(i){if(t._rollingBack){null==r&&(r=i);var o=i-r,u=t.rollbackStartOffset-o,a=Math.round(u*t.speed);if(a>t.duration&&n!=1/0){var l=!!t.alternate&&a/t.duration%2>1,f=a%t.duration;a=(f+=l?t.duration:0)||t.duration}var s=t.fps?1e3/t.fps:0,c=Math.max(0,a);if(c<n-s){t.offset=c,n=c;for(var h=t._animations,v=h.length,y=0;y<v;y++)h[y](c,t.direction)}var g=!1;if(t.iterations>0&&-1===t.fill){var d=t.iterations*t.duration,p=d==a;a=p?0:a,t.offset=p?0:t.offset,g=a>d}a>0&&t.offset>=a&&!g?t._id=window.requestAnimationFrame(e):t.stop()}}))}},{key:"_start",value:function(){var t=this,n=arguments.length>0&&void 0!==arguments[0]?arguments[0]:0,r=-1/0,e=null,i={},o=function o(u){t._running=!0,null==e&&(e=u);var a=Math.round((u-e+n)*t.speed),l=t.fps?1e3/t.fps:0;if(a>r+l&&!t._rollingBack){t.offset=a,r=a;for(var f=t._animations,s=f.length,c=0,h=0;h<s;h++)i[h]?c++:(i[h]=f[h](a,t.direction),i[h]&&c++);if(c===s)return void t._stop()}t._id=window.requestAnimationFrame(o)};this._id=window.requestAnimationFrame(o)}},{key:"_stop",value:function(){this._id&&window.cancelAnimationFrame(this._id),this._running=!1,this._rollingBack=!1}},{key:"play",value:function(){!this._rollingBack&&this._running||(this._rollingBack=!1,this.rollbackStartOffset>this.duration&&(this.offset=this.rollbackStartOffset-(this.rollbackStartOffset-this.offset)%this.duration,this.rollbackStartOffset=0),this._start(this.offset))}},{key:"stop",value:function(){this._stop(),this.offset=0,this.rollbackStartOffset=0;var t=this.direction,n=this._animations;window.requestAnimationFrame((function(){for(var r=0;r<n.length;r++)n[r](0,t)}))}},{key:"reachedToEnd",value:function(){return this.iterations>0&&this.offset>=this.iterations*this.duration}},{key:"restart",value:function(){this._stop(),this.offset=0,this._start()}},{key:"pause",value:function(){this._stop()}},{key:"reverse",value:function(){this.direction=-this.direction}}],[{key:"build",value:function(r,e){return delete r.animationSettings,r.options=it(r.options,r.root,"5c7f360c"),r.animations.map((function(t){var e=it(t.s,r.root,"5c7f360c");for(var i in delete t.s,r.animationSettings||(r.animationSettings=n({},e)),e)e.hasOwnProperty(i)&&(t[i]=e[i])})),(r=function(t,n){if(V=n,!t||!t.root||!Array.isArray(t.animations))return null;for(var r=document.getElementsByTagName("svg"),e=!1,i=0;i<r.length;i++)if(r[i].id===t.root&&!r[i].svgatorAnimation){(e=r[i]).svgatorAnimation=!0;break}if(!e)return null;var o=t.animations.map((function(t){return tt(e,t)})).filter((function(t){return!!t}));return o.length?{element:e,animations:o,animationSettings:t.animationSettings,options:t.options||void 0}:null}(r,e))?{el:r.element,options:r.options||{},player:new t(r.animations,r.animationSettings,r.options)}:null}},{key:"push",value:function(t){return this.build(t)}},{key:"init",value:function(){var t=this,n=window.__SVGATOR_PLAYER__&&window.__SVGATOR_PLAYER__["5c7f360c"];Array.isArray(n)&&n.splice(0).forEach((function(n){return t.build(n)}))}}]),t}();function ut(t){return v(t)+""}function at(t){var n=arguments.length>1&&void 0!==arguments[1]?arguments[1]:" ";return t&&t.length?t.map(ut).join(n):""}function lt(t){return t?null==t.a||t.a>=1?"rgb("+t.r+","+t.g+","+t.b+")":"rgba("+t.r+","+t.g+","+t.b+","+t.a+")":"transparent"}function ft(t){return t?"url(#"+t+")":"none"}!function(){for(var t=0,n=["ms","moz","webkit","o"],r=0;r<n.length&&!window.requestAnimationFrame;++r)window.requestAnimationFrame=window[n[r]+"RequestAnimationFrame"],window.cancelAnimationFrame=window[n[r]+"CancelAnimationFrame"]||window[n[r]+"CancelRequestAnimationFrame"];window.requestAnimationFrame||(window.requestAnimationFrame=function(n){var r=Date.now(),e=Math.max(0,16-(r-t)),i=window.setTimeout((function(){n(r+e)}),e);return t=r+e,i},window.cancelAnimationFrame=window.clearTimeout)}();var st={f:null,i:function(t,n,r){return 0===t?n:1===t?r:{x:F(t,n.x,r.x),y:F(t,n.y,r.y)}},u:function(t,n){return function(r){var e=n(r);t.setAttribute("rx",ut(e.x)),t.setAttribute("ry",ut(e.y))}}},ct={f:null,i:function(t,n,r){return 0===t?n:1===t?r:{width:F(t,n.width,r.width),height:F(t,n.height,r.height)}},u:function(t,n){return function(r){var e=n(r);t.setAttribute("width",ut(e.width)),t.setAttribute("height",ut(e.height))}}};Object.freeze({M:2,L:2,Z:0,H:1,V:1,C:6,Q:4,T:2,S:4,A:7});var ht={},vt=null;function yt(t){var n=function(){if(vt)return vt;if("object"!==("undefined"==typeof document?"undefined":r(document))||!document.createElementNS)return{};var t=document.createElementNS("http://www.w3.org/2000/svg","svg");return t&&t.style?(t.style.position="absolute",t.style.opacity="0.01",t.style.zIndex="-9999",t.style.left="-9999px",t.style.width="1px",t.style.height="1px",vt={svg:t}):{}}().svg;if(!n)return function(t){return null};var e=document.createElementNS(n.namespaceURI,"path");e.setAttributeNS(null,"d",t),e.setAttributeNS(null,"fill","none"),e.setAttributeNS(null,"stroke","none"),n.appendChild(e);var i=e.getTotalLength();return function(t){var n=e.getPointAtLength(i*t);return{x:n.x,y:n.y}}}function gt(t){return ht[t]?ht[t]:ht[t]=yt(t)}function dt(t,n,r,e){if(!t||!e)return!1;var i=["M",t.x,t.y];if(n&&r&&(i.push("C"),i.push(n.x),i.push(n.y),i.push(r.x),i.push(r.y)),n?!r:r){var o=n||r;i.push("Q"),i.push(o.x),i.push(o.y)}return n||r||i.push("L"),i.push(e.x),i.push(e.y),i.join(" ")}function pt(t,n,r,e){var i=arguments.length>4&&void 0!==arguments[4]?arguments[4]:1,o=dt(t,n,r,e),u=gt(o);try{return u(i)}catch(t){return null}}function mt(t,n,r,e){var i=1-e;return i*i*t+2*i*e*n+e*e*r}function bt(t,n,r,e){return 2*(1-e)*(n-t)+2*e*(r-n)}function wt(t,n,r,e){var i=arguments.length>4&&void 0!==arguments[4]&&arguments[4],o=pt(t,n,null,r,e);return o||(o={x:mt(t.x,n.x,r.x,e),y:mt(t.y,n.y,r.y,e)}),i&&(o.a=xt(t,n,r,e)),o}function xt(t,n,r,e){return Math.atan2(bt(t.y,n.y,r.y,e),bt(t.x,n.x,r.x,e))}function At(t,n,r,e,i){var o=i*i;return i*o*(e-t+3*(n-r))+3*o*(t+r-2*n)+3*i*(n-t)+t}function kt(t,n,r,e,i){var o=1-i;return 3*(o*o*(n-t)+2*o*i*(r-n)+i*i*(e-r))}function _t(t,n,r,e,i){var o=arguments.length>5&&void 0!==arguments[5]&&arguments[5],u=pt(t,n,r,e,i);return u||(u={x:At(t.x,n.x,r.x,e.x,i),y:At(t.y,n.y,r.y,e.y,i)}),o&&(u.a=St(t,n,r,e,i)),u}function St(t,n,r,e,i){return Math.atan2(kt(t.y,n.y,r.y,e.y,i),kt(t.x,n.x,r.x,e.x,i))}function Ot(t,n,r){return t+(n-t)*r}function jt(t,n,r){var e=arguments.length>3&&void 0!==arguments[3]&&arguments[3],i={x:Ot(t.x,n.x,r),y:Ot(t.y,n.y,r)};return e&&(i.a=Pt(t,n)),i}function Pt(t,n){return Math.atan2(n.y-t.y,n.x-t.x)}function Mt(t,n,r){var e=arguments.length>3&&void 0!==arguments[3]&&arguments[3];if(Rt(n)){if(It(r))return wt(n,r.start,r,t,e)}else if(Rt(r)){if(n.end)return wt(n,n.end,r,t,e)}else{if(n.end)return r.start?_t(n,n.end,r.start,r,t,e):wt(n,n.end,r,t,e);if(r.start)return wt(n,r.start,r,t,e)}return jt(n,r,t,e)}function Et(t,n,r){var e=Mt(t,n,r,!0);return e.a=function(t){return arguments.length>1&&void 0!==arguments[1]&&arguments[1]?t+Math.PI:t}(e.a)/g,e}function Rt(t){return!t.type||"corner"===t.type}function It(t){return null!=t.start&&!Rt(t)}var Nt=new I;var Bt={f:ut,i:B},Ft={f:ut,i:T};function Tt(t,n,r){return t.map((function(t){return function(t,n,r){var e=t.v;if(!e||"g"!==e.t||e.s||!e.v||!e.r)return t;var i=r.getElementById(e.r),o=i&&i.querySelectorAll("stop")||[];return e.s=e.v.map((function(t,n){var r=o[n]&&o[n].getAttribute("offset");return{c:t,o:r=v(parseInt(r)/100)}})),delete e.v,t}(t,0,r)}))}var qt={gt:"gradientTransform",c:{x:"cx",y:"cy"},rd:"r",f:{x:"x1",y:"y1"},to:{x:"x2",y:"y2"}};function Lt(t,n,e,i,o,u,a,l){return Tt(t,0,l),n=function(t,n,r){for(var e,i,o,u=t.length-1,a={},l=0;l<=u;l++)(e=t[l]).e&&(e.e=n(e.e)),e.v&&"g"===(i=e.v).t&&i.r&&(o=r.getElementById(i.r))&&(a[i.r]={e:o,s:o.querySelectorAll("stop")});return a}(t,i,l),function(i){var o=e(i,t,Ct);if(!o)return"none";if("c"===o.t)return lt(o.v);if("g"===o.t){if(!n[o.r])return ft(o.r);var u=n[o.r];return function(t,n){for(var r=t.s,e=r.length;e<n.length;e++){var i=r[r.length-1].cloneNode();i.id=Vt(i.id),t.e.appendChild(i),r=t.s=t.e.querySelectorAll("stop")}for(var o=0,u=r.length,a=n.length-1;o<u;o++)r[o].setAttribute("stop-color",lt(n[Math.min(o,a)].c)),r[o].setAttribute("offset",n[Math.min(o,a)].o)}(u,o.s),Object.keys(qt).forEach((function(t){if(void 0!==o[t])if("object"!==r(qt[t])){var n,e="gt"===t?(n=o[t],Array.isArray(n)?"matrix("+n.join(" ")+")":""):o[t],i=qt[t];u.e.setAttribute(i,e)}else Object.keys(qt[t]).forEach((function(n){if(void 0!==o[t][n]){var r=o[t][n],e=qt[t][n];u.e.setAttribute(e,r)}}))})),ft(o.r)}return"none"}}function Ct(t,r,e){if(0===t)return r;if(1===t)return e;if(r&&e){var i=r.t;if(i===e.t)switch(r.t){case"c":return{t:i,v:C(t,r.v,e.v)};case"g":if(r.r===e.r){var o={t:i,s:Dt(t,r.s,e.s),r:r.r};return r.gt&&e.gt&&(o.gt=function(t,n,r){var e=n.length;if(e!==r.length)return N(t,n,r);for(var i=new Array(e),o=0;o<e;o++)i[o]=B(t,n[o],r[o]);return i}(t,r.gt,e.gt)),r.c?(o.c=q(t,r.c,e.c),o.rd=F(t,r.rd,e.rd)):r.f&&(o.f=q(t,r.f,e.f),o.to=q(t,r.to,e.to)),o}}if("c"===r.t&&"g"===e.t||"c"===e.t&&"g"===r.t){var u="c"===r.t?r:e,a="g"===r.t?n({},r):n({},e),l=a.s.map((function(t){return{c:u.v,o:t.o}}));return a.s="c"===r.t?Dt(t,l,a.s):Dt(t,a.s,l),a}}return N(t,r,e)}function Dt(t,n,r){if(n.length===r.length)return n.map((function(n,e){return zt(t,n,r[e])}));for(var e=Math.max(n.length,r.length),i=[],o=0;o<e;o++){var u=zt(t,n[Math.min(o,n.length-1)],r[Math.min(o,r.length-1)]);i.push(u)}return i}function zt(t,n,r){return{o:T(t,n.o,r.o||0),c:C(t,n.c,r.c||{})}}function Vt(t){return t.replace(/-fill-([0-9]+)$/,(function(t,n){return"-fill-"+(+n+1)}))}var Gt={fill:Lt,"fill-opacity":Ft,stroke:Lt,"stroke-opacity":Ft,"stroke-width":Bt,"stroke-dashoffset":{f:ut,i:B},"stroke-dasharray":{f:function(t){var n=arguments.length>1&&void 0!==arguments[1]?arguments[1]:" ";return t&&t.length>0&&(t=t.map((function(t){return v(t,4)}))),at(t,n)},i:function(t,n,r){var e,i,o,u=n.length,a=r.length;if(u!==a)if(0===u)n=D(u=a,0);else if(0===a)a=u,r=D(u,0);else{var l=(o=(e=u)*(i=a)/function(t,n){for(var r;n;)r=n,n=t%n,t=r;return t||1}(e,i))<0?-o:o;n=z(n,Math.floor(l/u)),r=z(r,Math.floor(l/a)),u=a=l}for(var f=[],s=0;s<u;s++)f.push(v(F(t,n[s],r[s])));return f}},opacity:Ft,transform:function(t,n,e,i){if(!(t=function(t,n){if(!t||"object"!==r(t))return null;var e=!1;for(var i in t)t.hasOwnProperty(i)&&(t[i]&&t[i].length?(t[i].forEach((function(t){t.e&&(t.e=n(t.e))})),e=!0):delete t[i]);return e?t:null}(t,i)))return null;var o=function(r,i,o){var u=arguments.length>3&&void 0!==arguments[3]?arguments[3]:null;return t[r]?e(i,t[r],o):n&&n[r]?n[r]:u};return n&&n.a&&t.o?function(n){var r=e(n,t.o,Et);return Nt.recomposeSelf(r,o("r",n,B,0)+r.a,o("k",n,q),o("s",n,q),o("t",n,q)).toString()}:function(t){return Nt.recomposeSelf(o("o",t,Mt,null),o("r",t,B,0),o("k",t,q),o("s",t,q),o("t",t,q)).toString()}},r:Bt,"#size":ct,"#radius":st,_:function(t,n){if(Array.isArray(t))for(var r=0;r<t.length;r++)this[t[r]]=n;else this[t]=n}},Yt=function(t){!function(t,n){if("function"!=typeof n&&null!==n)throw new TypeError("Super expression must either be null or a function");t.prototype=Object.create(n&&n.prototype,{constructor:{value:t,writable:!0,configurable:!0}}),n&&l(t,n)}(r,t);var n=s(r);function r(){return e(this,r),n.apply(this,arguments)}return o(r,null,[{key:"build",value:function(t){var n=c(a(r),"build",this).call(this,t,Gt);if(!n)return null;n.el,n.options,function(t,n,r){t.play()}(n.player)}}]),r}(ot);return Yt.init(),Yt}));
(function(s,i,o,w){w[o]=w[o]||{};w[o][s]=w[o][s]||[];w[o][s].push(i);})('5c7f360c',{"root":"eJVP0ixBF2b1","animations":[{"elements":{"eJVP0ixBF2b5":{"transform":{"data":{"o":{"x":245.555709,"y":147.600453,"type":"corner"},"t":{"x":-245.555709,"y":-147.600453}},"keys":{"r":[{"t":0,"v":-1.1436},{"t":20,"v":-0.61826},{"t":40,"v":-0.348336},{"t":60,"v":0.628856},{"t":100,"v":-0.63769},{"t":130,"v":-2.820007},{"t":190,"v":-2.016728},{"t":240,"v":-1.989131}]}}},"eJVP0ixBF2b12":{"transform":{"data":{"o":{"x":249.604423,"y":357.325409,"type":"corner"},"t":{"x":-249.604423,"y":-357.325409}},"keys":{"r":[{"t":0,"v":4.115211},{"t":100,"v":7.741727},{"t":200,"v":5.601155},{"t":300,"v":1.21131}]}}},"eJVP0ixBF2b30":{"transform":{"data":{"t":{"x":-45.904999,"y":-391.053025}},"keys":{"o":[{"t":200,"v":{"x":212.041403,"y":413.273093,"type":"corner"}},{"t":300,"v":{"x":207.74282,"y":399.137405,"type":"corner"}},{"t":400,"v":{"x":199.63139,"y":372.465946,"type":"corner"}},{"t":500,"v":{"x":191.411009,"y":351.50593,"type":"corner"}},{"t":600,"v":{"x":185.766905,"y":325.106477,"type":"corner"}},{"t":700,"v":{"x":185.766904,"y":308.33356,"type":"corner"}},{"t":800,"v":{"x":185.766904,"y":297.070916,"type":"corner"}},{"t":900,"v":{"x":184.499559,"y":278.220891,"type":"corner"}},{"t":1000,"v":{"x":179.756925,"y":266.720476,"type":"corner"}},{"t":1100,"v":{"x":178.706049,"y":256.639936,"type":"corner"}},{"t":1200,"v":{"x":178.706049,"y":244.454104,"type":"corner"}},{"t":1300,"v":{"x":175.284679,"y":232.203542,"type":"corner"}},{"t":1400,"v":{"x":175.284679,"y":232.203542,"type":"corner"}},{"t":1500,"v":{"x":175.284679,"y":220.703126,"type":"corner"}},{"t":1600,"v":{"x":175.284679,"y":232.203542,"type":"corner"}},{"t":1700,"v":{"x":175.284679,"y":232.203542,"type":"corner"}},{"t":1800,"v":{"x":178.706049,"y":244.454104,"type":"corner"}},{"t":1900,"v":{"x":178.706049,"y":256.639936,"type":"corner"}},{"t":2000,"v":{"x":179.756925,"y":266.720476,"type":"corner"}},{"t":2100,"v":{"x":184.499559,"y":278.220891,"type":"corner"}},{"t":2200,"v":{"x":185.766904,"y":297.070916,"type":"corner"}},{"t":2300,"v":{"x":185.766904,"y":308.33356,"type":"corner"}},{"t":2400,"v":{"x":185.766905,"y":325.106477,"type":"corner"}},{"t":2500,"v":{"x":191.411009,"y":351.50593,"type":"corner"}},{"t":2600,"v":{"x":199.63139,"y":372.465946,"type":"corner"}},{"t":2700,"v":{"x":207.74282,"y":399.137405,"type":"corner"}},{"t":2800,"v":{"x":212.041403,"y":413.273093,"type":"corner"}}],"r":[{"t":200,"v":336.835838},{"t":300,"v":320.864052},{"t":400,"v":268.265181},{"t":500,"v":231.492737},{"t":600,"v":182.007988},{"t":700,"v":160.67375},{"t":800,"v":133.203161},{"t":900,"v":97.776276},{"t":1000,"v":74.613362},{"t":1100,"v":62.016233},{"t":1200,"v":41.605062},{"t":1300,"v":28.188668},{"t":1400,"v":17.002646},{"t":1500,"v":5.074398},{"t":1600,"v":17.002646},{"t":1700,"v":28.188668},{"t":1800,"v":41.605062},{"t":1900,"v":62.016233},{"t":2000,"v":74.613362},{"t":2100,"v":97.776276},{"t":2200,"v":133.203161},{"t":2300,"v":160.67375},{"t":2400,"v":182.007988},{"t":2500,"v":231.492737},{"t":2600,"v":268.265181},{"t":2700,"v":320.864052},{"t":2800,"v":336.835838}]}}}},"s":"MNDA1M2QxNzhiYWNiYzPhiN2NhSGJmYzVjNE0R3ODkwODk4Njg2ODY4LMjc4YmFiZmM4YmJiOQWNhYmZjNUdjNDc4OTNA4NzgyNzhiZmNhYmJDjOGI3TmNhYmZjNWM0SYzlBNzg5MEg4NlM4MAjc4YmNiZk1jMmMyNzAg5MDg3VjgyNzhiN2MTyWWNhYmJjOGM0YjdjXYWJiNzg5MGJjYjdjMNmM5S2JiODI3OGM5YzSZiYmJiYmFONzg5MDgY3ZDM/"}],"options":"MQDAxMDg4MmY4MDgxNmIU3ZkdNODEyZjQ3MmYU3OTdjNmVLVzcxMmY4JYQ|"},'__SVGATOR_PLAYER__',window)]]></script></svg>