<svg xmlns="http://www.w3.org/2000/svg" xmlns:xlink="http://www.w3.org/1999/xlink" viewBox="0 0 289.74 243.52"><defs><style>.cls-1{fill:#5b5b5b;}.cls-2{fill:#878787;}.cls-3{fill:#504f60;}.cls-4{fill:url(#linear-gradient);}.cls-5{fill:#575989;}.cls-6,.cls-9{isolation:isolate;}.cls-6{opacity:0.1;}.cls-7{fill:#353045;}.cls-8{fill:#f2f2f2;}.cls-9{opacity:0.05;}.cls-10{fill:#3d3d3d;}.cls-11{fill:#939393;}.cls-12{fill:#dce6f2;}.cls-13{fill:#d2cfcf;}.cls-14{fill:#feffff;}.cls-15{fill:#464a5f;}.cls-16{fill:#9c9ca1;}.cls-17{fill:#939498;}</style><linearGradient id="linear-gradient" x1="231.52" y1="374.55" x2="231.52" y2="616.49" gradientTransform="matrix(1, 0, 0, -1, -68.28, 616.49)" gradientUnits="userSpaceOnUse"><stop offset="0" stop-color="gray" stop-opacity="0.25"/><stop offset="0.54" stop-color="gray" stop-opacity="0.12"/><stop offset="1" stop-color="gray" stop-opacity="0.1"/></linearGradient></defs><g id="Layer_2" data-name="Layer 2"><g id="Layer_1-2" data-name="Layer 1"><path class="cls-1" d="M244.4,139.52v29.33H251s3.39-28.66-.89-33.25S244.4,139.52,244.4,139.52Z"/><path class="cls-2" d="M8.47,93.19s192-38,194.66-24.67c0,0,3,4.33,1.84,13.17s-3,35.16,19,37.16,26.83,6.17,27,21.34L62.47,202,40.3,175s-20-9.83-20.5-9.83S8.47,141,8.47,141l-1.84-21.5,2.84-18.83Z"/><rect class="cls-3" x="10.41" y="85.62" width="194.97" height="1" transform="translate(-12.26 18.14) rotate(-9.09)"/><rect class="cls-3" x="8.73" y="95.62" width="197.84" height="1" transform="matrix(0.99, -0.17, 0.17, 0.99, -14.61, 19.44)"/><rect class="cls-3" x="7.66" y="107.85" width="198.5" height="1" transform="translate(-18.58 22.2) rotate(-10.92)"/><rect class="cls-3" x="7.96" y="117.35" width="198.58" height="1" transform="translate(-22.16 24.88) rotate(-12)"/><rect class="cls-3" x="11.62" y="126.55" width="197.32" height="1" transform="translate(-25.72 28.01) rotate(-12.98)"/><rect class="cls-3" x="16.92" y="135.1" width="196.62" height="1" transform="translate(-28.46 30.63) rotate(-13.49)"/><rect class="cls-3" x="28.79" y="140.25" width="190.86" height="1" transform="translate(-31.13 35.36) rotate(-14.42)"/><rect class="cls-3" x="38.17" y="144.88" width="195.68" height="1" transform="translate(-33.51 41) rotate(-15.28)"/><rect class="cls-3" x="48.37" y="150.94" width="199.95" height="1" transform="translate(-36.18 47.08) rotate(-16.1)"/><rect class="cls-3" x="53.82" y="159.84" width="200.4" height="1" transform="translate(-39.21 50.37) rotate(-16.51)"/><path class="cls-1" d="M10.13,90.85s-9.66,2.5-10,36.34a43.49,43.49,0,0,0,2.5,18.19c3.5,9.14,8.84,22,6.17,30,0,0-2.6,21.5-8.8,26.67l6,5.33s13.58-31.06,28.5-26.16S54,194,52.3,218.52l-1.67,20.83L58,243.52s11-31,1.66-59.83c0,0-9.33-13.67-21.66-18.17s-18.6-6.59-24.84-24.77c0,0-2.33-17.48-.83-23.77S13.63,91.85,10.13,90.85Z"/><path class="cls-4" d="M284.31,201.06c-7.63,6.09-12.41.46-12.41.46s-12.87-9.18-13.15-10.45a12,12,0,0,0-.74-2.27s-2.11.36-2.11-.64-2.21-1.36-3.49-2.18-9.38-7.9-9.38-7.9-.28-1.54-4-2.72c-2.61-.83-8.17-6-11.24-9-.19-1.22-.82-4.92-1.5-6.05a1.65,1.65,0,0,0-1.21-.53c-.09-.34-.2-.71-.3-1.13a75.11,75.11,0,0,1-2-10.42c-.82-7.27-7-9.54-8.55-9.54s-14-5.27-14-5.27l-20.13-8.17s-12.42-3.9-12-6.54a2.21,2.21,0,0,0,0-.85,9.66,9.66,0,0,0-2.41-3.87,27.15,27.15,0,0,0-2.44-2.36l-6.69-4.15-.51-.32a57.79,57.79,0,0,1,7.2-8.34s-1.47-2.73-3.12-2.73c-1.11,0-7.26-1.93-11.25-3.22.41-4.41,1.22-17.85-3.83-20.57L139.05,69s.21.46.53,1.21l-.9-.49s.11.23.27.62a5,5,0,0,0-.56-.06,11.65,11.65,0,0,1-.72-4c.41-1.26.47-9.9-3.15-14.35l2.9-8.44a1.65,1.65,0,0,0-1-2.1h0l-7.53-2.53a2.27,2.27,0,0,0-2.54,1l-2.13,6.21c-.9-.2-1.81-.36-2.73-.47-.64-1.15-1.4-2.25-1.29-3.52a6.27,6.27,0,0,1,.77-2.09,23.59,23.59,0,0,0,2-6,2.6,2.6,0,0,0,0-1.27c-.31-1-1.65-1.38-2.22-2.29a3.25,3.25,0,0,1-.1-2.56c.37-1.34.94-2.63,1.24-4a5.84,5.84,0,0,0-.34-4.07,6.38,6.38,0,0,0-2.4-2.27c-.26-1.2-1.13-2.34-.85-3.53.17-.72.73-1.31.84-2,.18-1.31-1.13-2.31-2.28-3L106.67,3c-.91-.54-1.86-1.08-2.83-1.54A10.14,10.14,0,0,0,98,0c-2.59.32-4.73,2.17-6.34,4.22S88.83,8.59,87,10.47C83.76,13.9,79,15.55,75.43,18.7a7.89,7.89,0,0,0-2.31,3.05c-1.5,3.95,2.18,8,2.16,12.27,0,3.7-2.86,6.77-5.81,9.06-1.25,1-2.66,2-2.91,3.6a8.3,8.3,0,0,0,.7,3.54,11.55,11.55,0,0,1-.35,7.3c-2.32,1.54-4,2.58-4,2.58s-9.56,8-14.89,9.81a1,1,0,0,0-.55.32C46,71.13,42,73.66,41.23,75c-.92,1.64-7.17,7.81-3.12,10a22.59,22.59,0,0,0,7.54,2.55S55,90.43,58.7,92.25a40.53,40.53,0,0,0,7,2.41,14.1,14.1,0,0,1-2.8,7.08h-.1a11.17,11.17,0,0,1-1.54,1.68l1,.16-.06.07c2.66.42,5.4.85,8,.24s5.14-2.48,5.62-5.11c.52-2.82-1.25-6.21.67-8.36a4.16,4.16,0,0,1,2.41-1.23c1.27,1.68,10.63,13.6,19.13,11-1.93,5.17-5.38,14.17-6,14.43-.92.37,9.38,3.64,9.38,3.64s2-.33,4.93-.61c0,.35-.05.71-.07,1.1-.19,3.56-.33,8.36.29,9.68a7.43,7.43,0,0,1,.37,1,17.74,17.74,0,0,0,5.54,8.93l.89.76a12,12,0,0,1,2.9,3.81,14.83,14.83,0,0,0,8.73,7.54A19.35,19.35,0,0,0,134,151s20.67,2,32.07,2.9,23.81,6.18,23.81,6.18a52.67,52.67,0,0,1,9.8,9.3c.31.39.6.79.88,1.2l-1.76,3.12s8.4,6.13,14.06,10.71a7.64,7.64,0,0,1,0,.83c-.27,6.08,7.82,14.62,7.82,14.62s2.48,3.45,3.77,5.18-2.21,2.81-2.21,2.81,5.79,1.64,3.5,7.72-.65,10.09-.65,10.09l3.4,16.25h7.08l-1.38-11.26c2.49-.18,9.1,10,9.1,10s17.29-2.63,20.41-3.54,2.58-6.72-3.4-5.45a10.27,10.27,0,0,1-9.56-2.81s-4.23-4.91-6.62-17.44a90.36,90.36,0,0,0-3.07-10.87c3.28,5,5.09,12.29,5.83,12.68,1,.55,13.7,14.9,13.7,14.9l5-4.91-8.59-10s7.82.09,11,2.27,7.44,1.09,7.44,1.09,9.75-7.72,12.14-10.62S291.94,195,284.31,201.06Z"/><path class="cls-5" d="M141.41,71.51s-4.17-1.27-4,.9-2.17,4.17-2.17,4.17l3.8,10,8.52-3.08L144.85,75Z"/><path class="cls-6" d="M141.41,71.51s-4.17-1.27-4,.9-2.17,4.17-2.17,4.17l3.8,10,8.52-3.08L144.85,75Z"/><path class="cls-7" d="M119.56,18a8,8,0,0,1,3.36,2.85,5.92,5.92,0,0,1,.34,4.06c-.3,1.35-.86,2.64-1.22,4a3.27,3.27,0,0,0,.09,2.55c.56.91,1.88,1.26,2.19,2.28a2.6,2.6,0,0,1,0,1.27,23.9,23.9,0,0,1-2,6,6.43,6.43,0,0,0-.76,2.08c-.18,2,1.87,3.64,2,5.66a6.4,6.4,0,0,1-.82,3.14,6.72,6.72,0,0,1-2,2.94,5.16,5.16,0,0,1-4.32.38c-1.44-.4-2.79-1.11-4.24-1.48a17.07,17.07,0,0,1-4-1c-2.07-1.09-2.93-3.56-3.54-5.81a9.27,9.27,0,0,1-.39-4.64,15.67,15.67,0,0,1,1.25-2.77,22,22,0,0,1,1.68-3.41c.7-1,1.74-1.78,2-2.95.34-1.35-.4-2.7-1-4a26.87,26.87,0,0,1-1.4-3.37,6,6,0,0,1-.42-2.93c.36-2,2.47-3.29,4.48-3.83,1.48-.4,3-.58,4.46-1.11a6.54,6.54,0,0,1,1.9-.72A4.47,4.47,0,0,1,119.56,18Z"/><path class="cls-8" d="M225.44,162.25l-16.79,2.25h-.05s-16.75-20-17-20.1l-18.93-6.71L160,134l-1.72-8.24,16.84-.63,5.53.81,19.83,8.15s12.22,5.25,13.76,5.25,7.61,2.27,8.43,9.51a76.51,76.51,0,0,0,2,10.4C225.07,161.11,225.44,162.25,225.44,162.25Z"/><path class="cls-9" d="M225.44,162.25l-16.79,2.25h-.05s-16.75-20-17-20.1l-18.93-6.71L160,134l-1.72-8.24,16.84-.63,5.53.81,19.83,8.15s12.22,5.25,13.76,5.25,7.61,2.27,8.43,9.51a76.51,76.51,0,0,0,2,10.4C225.07,161.11,225.44,162.25,225.44,162.25Z"/><path class="cls-6" d="M174.82,125.57l.82,1.36s-5.81,3.12-5.35,4.32l-8.42-3.42Z"/><path class="cls-6" d="M225.44,162.25l-16.79,2.25c-1.08-3.87-2-6.69-2-6.69l11.59,2a29.54,29.54,0,0,1,6.3-.56C225.07,161.11,225.44,162.25,225.44,162.25Z"/><path class="cls-10" d="M218.29,160.89s7-1.36,7.79,0,1.54,6.43,1.54,6.43,13.67,32.05,16,44.55,6.52,17.39,6.52,17.39a10,10,0,0,0,9.41,2.8c5.89-1.26,6.43,4.53,3.35,5.44s-20.1,3.53-20.1,3.53-6.52-10.14-9-10l1.35,11.23h-7l-3.35-16.21s-1.63-4,.63-10.05-3.44-7.7-3.44-7.7,3.44-1.09,2.18-2.81-3.72-5.16-3.72-5.16-8-8.51-7.69-14.58-6.16-26.9-6.16-26.9Z"/><path class="cls-9" d="M218.29,160.89s7-1.36,7.79,0,1.54,6.43,1.54,6.43,13.67,32.05,16,44.55,6.52,17.39,6.52,17.39a10,10,0,0,0,9.41,2.8c5.89-1.26,6.43,4.53,3.35,5.44s-20.1,3.53-20.1,3.53-6.52-10.14-9-10l1.35,11.23h-7l-3.35-16.21s-1.63-4,.63-10.05-3.44-7.7-3.44-7.7,3.44-1.09,2.18-2.81-3.72-5.16-3.72-5.16-8-8.51-7.69-14.58-6.16-26.9-6.16-26.9Z"/><path class="cls-6" d="M232.33,210.33s2.44,16.39,5.61,17.57S232.33,210.33,232.33,210.33Z"/><path class="cls-6" d="M225.72,197.38c.27.27,7.78,10.05,10.77,10.14S225.72,197.38,225.72,197.38Z"/><path class="cls-8" d="M213.85,158.17S205.61,179.63,201.9,173a25.53,25.53,0,0,0-2-3,52,52,0,0,0-9.65-9.27s-12.23-5.26-23.46-6.16-31.59-2.9-31.59-2.9l-2.64-2.26c-.27-14.67,29.34-21.56,29.34-21.56s22.64,9.33,31.15,12,10,6.79,10,6.79l8.49,9Z"/><path class="cls-6" d="M213.85,158.17S205.61,179.63,201.9,173a25.53,25.53,0,0,0-2-3l1.36-2.42a40.55,40.55,0,0,1,7.28-9.5,18,18,0,0,1,3-2.4Z"/><path class="cls-10" d="M204.16,165.05s7.61-9.32,9.69-8.33,11.59,8.06,11.59,8.06,9.53,10,13.19,11.14,3.93,2.72,3.93,2.72,8,7.06,9.24,7.87,3.44,1.18,3.44,2.18,2.08.63,2.08.63a12,12,0,0,1,.72,2.27C258.32,192.85,271,202,271,202s4.71,5.61,12.23-.45,5.61,2,3.26,4.89-12,10.59-12,10.59-4.16,1.09-7.33-1.08-10.87-2.27-10.87-2.27l8.46,10-4.93,4.89s-12.49-14.31-13.48-14.85-4-14-10-16.75c0,0-17-6.52-22.55-11.14S199,174.29,199,174.29Z"/><path class="cls-6" d="M260.67,197.38c-.54-.27-12.59,1.9-10.05,3.22S260.67,197.38,260.67,197.38Z"/><path class="cls-6" d="M247.63,191.59c-.54.36-7,1.9-5.34,3.62S247.63,191.59,247.63,191.59Z"/><path class="cls-11" d="M180.62,125.93s-4.35.09-18.38,3-27.07,22.73-27.07,22.73a18.9,18.9,0,0,1-8.93-.54,14.75,14.75,0,0,1-8.6-7.52,12,12,0,0,0-2.86-3.8l-.88-.75a17.88,17.88,0,0,1-5.45-8.91,7.43,7.43,0,0,0-.37-1c-.6-1.32-.47-6.09-.28-9.65.13-2.31.28-4.11.28-4.11l46.73-8.79,2.65,1.67,6.59,4.13a25.35,25.35,0,0,1,2.39,2.36,9.56,9.56,0,0,1,2.38,3.86,2.38,2.38,0,0,1,0,.84C168.39,122,180.62,125.93,180.62,125.93Z"/><path class="cls-8" d="M110.44,37.28s-4.53,6.34,1.08,17.93-23.72-6.7-23.72-6.7,11-16.67,9.42-19.74S110.44,37.28,110.44,37.28Z"/><circle class="cls-6" cx="106.27" cy="29.85" r="14.31"/><circle class="cls-8" cx="106.27" cy="28.77" r="14.31"/><path class="cls-6" d="M108.81,47.18s4.71,7.49-9.69,3.32,11.32,28.43,11.32,28.43l10.14-10.5L116.6,50Z"/><path class="cls-12" d="M108.81,47.9s4.71,7.49-9.69,3.32,11.32,28.44,11.32,28.44l10.14-10.51-4-18.47Z"/><path class="cls-6" d="M157.46,108.22a13.09,13.09,0,0,0-1.2,2c-1.63,3.62-5.62,2.71-5.62,2.71-6.52,4-23.72,2.9-23.72,2.9s3.8,6.34-3.44,4.17c-4.45-1.34-11.17-1-15.68-.6.13-2.31.28-4.11.28-4.11l46.73-8.79Z"/><path class="cls-13" d="M164.05,99.58s-6.16,6-7.79,9.6-5.62,2.72-5.62,2.72c-6.52,4-23.72,2.89-23.72,2.89s3.8,6.34-3.44,4.17S103,119,103,119s-10.14-3.26-9.23-3.62S101,97.41,101,97.41a7.55,7.55,0,0,0,.51-3,6.22,6.22,0,0,0-1.46-3.82,9,9,0,0,0-3.4-2.41C89.61,85.09,77.11,77.3,77.11,77.3s-31.87-4.7-26.62-6.52S65.16,61,65.16,61,80,51.59,82.91,47.6s8.87-5.25,8.87-5.25l8.29,6.16,15.08,13.4h0l.72-8.14s1.63-5.43,3.8-6.88,10.26,1.41,10.84,1.62h0s8.33,24.09,8,28.43a10.42,10.42,0,0,0,1.21,4.54c.51,1.13,1.15,2.33,1.82,3.49a87.41,87.41,0,0,0,4.94,7.55s12.86,4.34,14.49,4.34S164.05,99.58,164.05,99.58Z"/><polygon class="cls-6" points="115.15 63.45 113.52 70.6 97.85 62.09 99.35 49.23 114.42 62.63 114.42 62.63 115.15 63.45"/><polygon class="cls-11" points="115.87 62.73 114.24 69.88 98.57 61.37 100.07 48.51 115.15 61.91 115.15 61.9 115.87 62.73"/><path class="cls-6" d="M141.54,85.7c-5.94,1.23-32.46,6.8-40,9.42a6.22,6.22,0,0,0-1.46-3.82c7.51-3.44,30.6-13.3,39.65-9.1C140.23,83.34,140.87,84.53,141.54,85.7Z"/><path class="cls-6" d="M141.54,84.25c-5.94,1.23-32.46,6.8-40,9.42a6.22,6.22,0,0,0-1.46-3.82c7.51-3.44,30.6-13.3,39.65-9.1C140.23,81.89,140.87,83.08,141.54,84.25Z"/><path class="cls-11" d="M141.54,85c-5.94,1.24-32.46,6.81-40,9.43a6.22,6.22,0,0,0-1.46-3.82c7.51-3.44,30.6-13.3,39.65-9.1C140.23,82.61,140.87,83.81,141.54,85Z"/><circle class="cls-14" cx="135.25" cy="88.35" r="1.86"/><circle class="cls-14" cx="141.54" cy="101.35" r="1.86"/><circle class="cls-14" cx="120.58" cy="92.06" r="1.86"/><circle class="cls-14" cx="128.1" cy="105.65" r="1.86"/><circle class="cls-14" cx="130.51" cy="74.04" r="1.86"/><path class="cls-6" d="M109,93.92s-7.61,18.7-5.8,21.24S109,93.92,109,93.92Z"/><path class="cls-6" d="M115.42,93.92c-1.07-.27,4.53,5,5.16,9.87s4.53,8.92,4.53,8.92l-3.89-9.51S116.69,94.24,115.42,93.92Z"/><path class="cls-6" d="M139.68,92.06c.55.82,8.07,2.27,8.88,10.69Z"/><path class="cls-6" d="M89.16,78.66c.9.82,11.14,7.7,14.76,7.84S89.16,78.66,89.16,78.66Z"/><path class="cls-6" d="M105.37,82.47s1.54,2.17,3.08,2.17S105.37,82.47,105.37,82.47Z"/><path class="cls-8" d="M73.49,82s8.33.55,10.87,1.54a40.91,40.91,0,0,0,7.69,1.29,15.62,15.62,0,0,1,10.65,5.75c2.37,3,3.57,6.73-1.14,9.53C92.15,105.74,80.73,89.8,80.73,89.8l-10-1.45Z"/><path class="cls-6" d="M168.82,118.57c-6.54.22-28.52.86-31.71-.06-.31-.09,19.42-1,24-1.9a18.4,18.4,0,0,0,5.29-1.9A9.56,9.56,0,0,1,168.82,118.57Z"/><path class="cls-6" d="M132.36,122.85s-10.87,8-6.12,8.06S132.36,122.85,132.36,122.85Z"/><path class="cls-13" d="M77.48,81.25c-3.27-.23-6.89,14.89-6.89,14.89A50,50,0,0,1,61,93.06c-3.62-1.81-12.86-4.71-12.86-4.71a22,22,0,0,1-7.42-2.53c-4-2.18,2.17-8.33,3.08-10s6.7-5.08,6.7-5.08l4.53-.9L75.48,73.5,62.26,76.58l1.65.51,4.43,1.36Z"/><path class="cls-11" d="M68.34,78.45,64.43,88.9c-7.87,6.15-7.24-2.41-7.24-2.41l6.72-9.4Z"/><path class="cls-6" d="M68.34,78.45,64.43,88.9c-7.87,6.15-7.24-2.41-7.24-2.41l6.72-9.4Z"/><circle class="cls-14" cx="59.68" cy="88.35" r="1.86"/><path class="cls-6" d="M118.52,21.63a2.56,2.56,0,0,0,2.1-2.47c0-1.41-1.22-2.71-.9-4.09.16-.72.72-1.31.82-2,.19-1.31-1.11-2.3-2.24-3L108.24,4c-2.39-1.43-5-2.92-7.79-2.57-2.56.32-4.67,2.17-6.24,4.2S91.4,10,89.63,11.89C86.4,15.31,81.7,17,78.2,20.09a7.93,7.93,0,0,0-2.28,3c-1.47,3.95,2.15,8,2.13,12.24,0,3.69-2.82,6.75-5.72,9-1.24,1-2.62,2-2.87,3.59a8.24,8.24,0,0,0,.69,3.53c1.74,5.92-2,12.19-6.89,16-1.45,1.13-3.09,2.27-3.62,4-.78,2.58,1.16,5.1,2.81,7.23,2.9,3.73,5.33,8,6,12.66s-.56,9.82-4.08,13c2.62.42,5.32.84,7.91.24s5.07-2.48,5.54-5.1c.5-2.81-1.24-6.19.66-8.33,1.44-1.63,4-1.32,6.15-1.61A10.06,10.06,0,0,0,93.1,80.4c.14-3.19-1.27-6.21-2.38-9.21s-1.89-6.41-.56-9.32c2.13-4.68,9.11-6.63,9.41-11.77.18-3-2.22-6.09-1-8.85.83-1.86,3-2.68,4.54-3.94,2.49-2,3.7-5.13,5.34-7.86a37.26,37.26,0,0,1,4.71-6c.57-.62,1.65-2.22,2.5-2.41S117.44,21.8,118.52,21.63Z"/><path class="cls-7" d="M117.79,21.27a2.57,2.57,0,0,0,2.11-2.47c0-1.42-1.22-2.72-.9-4.1.16-.71.72-1.3.82-2,.18-1.31-1.11-2.3-2.25-3l-10-6c-2.4-1.43-5-2.92-7.8-2.57-2.55.32-4.66,2.17-6.24,4.2s-2.81,4.34-4.57,6.22C85.68,15,81,16.6,77.47,19.73a8.13,8.13,0,0,0-2.28,3c-1.47,3.95,2.16,8,2.13,12.23,0,3.7-2.82,6.76-5.72,9-1.23,1-2.62,2-2.87,3.59a8.21,8.21,0,0,0,.7,3.52c1.73,5.93-2.05,12.2-6.9,16-1.44,1.13-3.08,2.27-3.62,4-.78,2.58,1.16,5.1,2.82,7.23,2.89,3.73,5.32,8,6,12.65s-.57,9.82-4.09,13c2.63.43,5.33.85,7.92.25s5.06-2.48,5.53-5.1c.51-2.81-1.23-6.19.66-8.33,1.44-1.63,4-1.33,6.15-1.61A10.06,10.06,0,0,0,92.38,80c.14-3.19-1.28-6.21-2.38-9.21s-1.9-6.41-.57-9.32c2.14-4.68,9.11-6.63,9.41-11.77.18-3-2.21-6.09-1-8.85.83-1.86,3-2.68,4.54-4,2.5-2,3.7-5.12,5.35-7.86a37.7,37.7,0,0,1,4.71-6c.57-.61,1.64-2.21,2.5-2.4S116.71,21.43,117.79,21.27Z"/><path class="cls-7" d="M108.75,45.64c.44,1.13.08,1.31.33,2.32a7.72,7.72,0,0,1,.21,2.87c-.13,1.36.72,3,0,4.13a2.65,2.65,0,0,0-.27.53,1.57,1.57,0,0,0,.68,1.59A3.88,3.88,0,0,1,111,58.25c.67,1.29-.61,3.12,0,4.46a2.65,2.65,0,0,0,.92,1,11.53,11.53,0,0,0,2.93,1.53c.68-1.07-.08-2.64.51-3.77a5,5,0,0,1,1.23-1.25,6.67,6.67,0,0,0,1.74-3.74c.25-1.39.29-2.81.57-4.2.45-2.28,1.52-4.41,1.76-6.71a1,1,0,0,0-.07-.62.73.73,0,0,0-.62-.27c-2.11-.18-4.42.38-6.44,0S110.39,43.89,108.75,45.64Z"/><path class="cls-6" d="M130.87,49.22c-.63,2.92-2.73,11-7.21,14.59C118.13,68.25,114,79.75,114,79.75l1.27,3a9.14,9.14,0,0,1-2.72-1.27c-1.27-.91,3-18.84,3-18.84l.72-8.15s1.63-5.43,3.81-6.88S130.29,49,130.87,49.22Z"/><path class="cls-11" d="M130.51,48.5c-.63,2.91-2.73,11-7.21,14.59C117.77,67.52,113.61,79,113.61,79l1.26,3a9.06,9.06,0,0,1-2.71-1.26c-1.27-.91,3-18.84,3-18.84l.72-8.15s1.63-5.43,3.8-6.88S129.93,48.29,130.51,48.5Z"/><rect class="cls-15" x="117.83" y="46.65" width="23.55" height="11.15" rx="1.7" transform="translate(38.46 158.13) rotate(-71.23)"/><rect class="cls-16" x="118.23" y="46.65" width="23.55" height="11.15" rx="1.7" transform="translate(38.73 158.51) rotate(-71.23)"/><circle class="cls-17" cx="131.75" cy="47.65" r="1.75"/><path class="cls-8" d="M143.39,82.92v.63l-6.78-3.48-.7-3.43-1.2-6S120.94,50.5,130.1,50.23s9.22,15.21,8.68,16.93c-.39,1.23,2.15,8.78,3.62,13C143,81.79,143.39,82.92,143.39,82.92Z"/><path class="cls-6" d="M149.38,95.78s2.35-18.66-3.63-21.92l-6-3.26s4.89,11,2.9,11.37-7.79-4.67-7.79-4.67V89.08Z"/><path class="cls-6" d="M143.39,82.92v.63l-6.78-3.48-.7-3.43c1.85,1.47,5,3.8,6.4,3.52l.09,0C143,81.79,143.39,82.92,143.39,82.92Z"/><path class="cls-13" d="M149.74,95.05s2.35-18.65-3.62-21.91l-6-3.26s4.89,11,2.9,11.36-7.79-4.66-7.79-4.66V88.35Z"/><circle class="cls-14" cx="115.87" cy="78.21" r="1.86"/><path class="cls-6" d="M118.79,14.84c.16-.72.72-1.3.82-2,.18-1.31-1.11-2.3-2.25-3l-.23-.14a1.82,1.82,0,0,1,.13,1c-.11.72-.66,1.31-.83,2-.32,1.38.89,2.68.9,4.09a2.56,2.56,0,0,1-2.1,2.47c-1.08.17-1.85-.85-2.84-.63s-1.93,1.8-2.5,2.41a36.65,36.65,0,0,0-4.7,6c-1.65,2.73-2.86,5.87-5.35,7.86-1.59,1.26-3.71,2.09-4.54,3.94-1.23,2.76,1.16,5.84,1,8.85C96,52.84,89,54.79,86.87,59.47c-1.33,2.91-.54,6.32.57,9.32s2.51,6,2.37,9.21a10,10,0,0,1-8.44,9.22c-2.16.29-4.71,0-6.15,1.61-1.89,2.14-.15,5.52-.66,8.34-.47,2.61-3,4.49-5.54,5.09a13.67,13.67,0,0,1-4,.26,12,12,0,0,1-1.52,1.67c2.63.43,5.33.85,7.92.25s5.06-2.49,5.53-5.1c.51-2.82-1.23-6.19.66-8.34,1.45-1.63,4-1.32,6.15-1.61a10,10,0,0,0,8.45-9.21C92.31,77,90.89,74,89.79,71s-1.9-6.42-.57-9.32C91.36,57,98.33,55,98.63,49.88c.18-3-2.21-6.1-1-8.86.83-1.85,3-2.67,4.54-3.94,2.5-2,3.7-5.13,5.35-7.86a37.7,37.7,0,0,1,4.71-6c.57-.61,1.64-2.21,2.5-2.4s1.76.79,2.83.63a2.58,2.58,0,0,0,2.11-2.47C119.67,17.52,118.47,16.22,118.79,14.84Z"/></g></g></svg>