<svg xmlns="http://www.w3.org/2000/svg" viewBox="0 0 324.3 485.6"><defs><style>.cls-1{fill:#ddd;}.cls-2{fill:#545454;}.cls-3{fill:#ccc;}.cls-4{fill:#f2f2f2;}</style></defs><g id="Layer_2" data-name="Layer 2"><g id="Layer_1-2" data-name="Layer 1"><path class="cls-1" d="M319.9,243c0,106.9-63.6,144.3-142,144.3S35.9,350,35.9,243,177.9,0,177.9,0,319.9,136,319.9,243Z"/><polygon class="cls-2" points="172.7 370.9 174.2 281.4 234.7 170.7 174.4 267.4 175.1 227.1 216.8 147 175.3 216.5 175.3 216.5 176.4 144.1 221.1 80.3 176.6 132.7 177.3 0 172.7 175.7 173.1 168.4 127.7 98.9 172.4 182.3 168.2 263.2 168 261 115.7 187.9 167.9 268.6 167.3 278.7 167.2 278.9 167.3 279.7 156.6 484.8 170.9 484.8 172.6 378.8 224.7 298.3 172.7 370.9"/><polygon class="cls-2" points="8 376.6 0 363.3 74.5 299.5 265.8 299.5 265.8 318.1 196.7 392.5 117 408.5 8 376.6"/><polygon class="cls-3" points="298.8 336.9 298.8 295.3 273.7 295.3 273.7 308.5 265.8 299.5 202 363.3 191.4 373.9 178.1 427.1 202 485.5 324.3 485.5 324.3 365.9 298.8 336.9"/><rect class="cls-4" y="363.3" width="202" height="122.3"/><rect class="cls-2" x="131.6" y="401.8" width="42.5" height="37.2"/><rect class="cls-3" x="77.1" y="400.5" width="37.2" height="85"/><polygon class="cls-2" points="34.6 413.8 34.6 400.5 18.6 400.5 18.6 413.8 33.3 413.8 34.6 413.8"/><polygon class="cls-2" points="33.3 424.4 18.6 424.4 18.6 437.7 34.6 437.7 34.6 424.4 33.3 424.4"/><rect class="cls-2" x="45.2" y="400.5" width="15.9" height="13.3"/><rect class="cls-2" x="45.2" y="424.4" width="15.9" height="13.3"/><polygon class="cls-2" points="259.2 415.1 259.2 401.8 243.2 401.8 243.2 415.1 257.8 415.1 259.2 415.1"/><polygon class="cls-2" points="257.8 425.7 243.2 425.7 243.2 439 259.2 439 259.2 425.7 257.8 425.7"/><rect class="cls-2" x="269.8" y="401.8" width="15.9" height="13.3"/><rect class="cls-2" x="269.8" y="425.7" width="15.9" height="13.3"/></g></g></svg>