<svg xmlns="http://www.w3.org/2000/svg" viewBox="0 0 324.3 485.6"><defs><style>.cls-1{fill:#ddd;}.cls-2{fill:#545454;}.cls-3{fill:#ccc;}.cls-4{fill:#f2f2f2;}</style></defs><g id="Layer_2" data-name="Layer 2"><g id="Layer_1-2" data-name="Layer 1"><path class="cls-1" d="M29.4,243c0,106.9,63.6,144.3,142,144.3s142-37.3,142-144.3S171.4,0,171.4,0,29.4,136,29.4,243Z"/><polygon class="cls-2" points="176.6 370.9 175.1 281.4 114.6 170.7 174.9 267.4 174.2 227.1 132.5 147 174 216.5 174 216.5 172.9 144.1 128.2 80.3 172.7 132.7 172 0 176.6 175.7 176.2 168.4 221.6 98.9 176.9 182.3 181.1 263.2 181.3 261 233.6 187.9 181.4 268.6 182 278.7 182.1 278.9 182 279.7 192.7 484.8 178.4 484.8 176.7 378.8 124.6 298.3 176.6 370.9"/><polygon class="cls-2" points="316.3 376.6 324.3 363.3 249.8 299.5 58.5 299.5 58.5 318.1 127.6 392.5 207.3 408.5 316.3 376.6"/><polygon class="cls-3" points="25.5 336.9 25.5 295.3 50.6 295.3 50.6 308.5 58.5 299.5 122.3 363.3 132.9 373.9 146.2 427.1 122.3 485.5 0 485.5 0 365.9 25.5 336.9"/><rect class="cls-4" x="122.3" y="363.3" width="202" height="122.3"/><rect class="cls-2" x="150.2" y="401.8" width="42.5" height="37.2"/><rect class="cls-3" x="210" y="400.5" width="37.2" height="85"/><polygon class="cls-2" points="289.7 413.8 289.7 400.5 305.7 400.5 305.7 413.8 291 413.8 289.7 413.8"/><polygon class="cls-2" points="291 424.4 305.7 424.4 305.7 437.7 289.7 437.7 289.7 424.4 291 424.4"/><rect class="cls-2" x="263.2" y="400.5" width="15.9" height="13.3"/><rect class="cls-2" x="263.2" y="424.4" width="15.9" height="13.3"/><polygon class="cls-2" points="65.1 415.1 65.1 401.8 81.1 401.8 81.1 415.1 66.5 415.1 65.1 415.1"/><polygon class="cls-2" points="66.5 425.7 81.1 425.7 81.1 439 65.1 439 65.1 425.7 66.5 425.7"/><rect class="cls-2" x="38.6" y="401.8" width="15.9" height="13.3"/><rect class="cls-2" x="38.6" y="425.7" width="15.9" height="13.3"/></g></g></svg>