<svg xmlns="http://www.w3.org/2000/svg" xmlns:xlink="http://www.w3.org/1999/xlink" viewBox="0 0 792.9 718.64"><defs><style>.cls-1,.cls-2{fill:#d2cfcf;}.cls-1,.cls-11,.cls-14,.cls-3,.cls-6{isolation:isolate;}.cls-1,.cls-11,.cls-17,.cls-3{opacity:0.1;}.cls-4{fill:#ffd037;}.cls-5{fill:#a8a8a8;}.cls-6{opacity:0.2;}.cls-7{fill:none;stroke:#535461;stroke-miterlimit:10;stroke-width:2px;}.cls-8{fill:url(#linear-gradient);}.cls-9{fill:#f2f2f2;}.cls-10,.cls-11{fill:#848483;}.cls-12{fill:#515150;}.cls-13{fill:#939392;}.cls-14{fill:#fff;opacity:0.3;}.cls-15{fill:#696969;}.cls-16{fill:#d6d6d6;}</style><linearGradient id="linear-gradient" x1="447.8" y1="1055" x2="447.8" y2="342.56" gradientTransform="translate(-51.45 -342.56)" gradientUnits="userSpaceOnUse"><stop offset="0" stop-color="gray" stop-opacity="0.25"/><stop offset="0.54" stop-color="gray" stop-opacity="0.12"/><stop offset="1" stop-color="gray" stop-opacity="0.1"/></linearGradient></defs><g id="Layer_2" data-name="Layer 2"><g id="Layer_1-2" data-name="Layer 1"><ellipse class="cls-1" cx="444.1" cy="699.74" rx="348.8" ry="18.9"/><path class="cls-2" d="M733.7,560.94s5.5,7.2-2.5,18-14.7,20-12,26.8c0,0,12.1-20.2,22-20.4S744.5,573,733.7,560.94Z"/><path class="cls-3" d="M733.7,560.94a7.55,7.55,0,0,1,1.1,2.2c9.6,11.3,14.7,21.9,5.5,22.1-8.6.2-19,15.7-21.4,19.5l.3.9s12.1-20.2,22-20.4S744.5,573,733.7,560.94Z"/><path class="cls-4" d="M743.9,570c0,2.5-.3,4.6-.6,4.6s-.6-2-.6-4.6.4-1.3.7-1.3S743.9,567.54,743.9,570Z"/><path class="cls-4" d="M747.4,573.14c-2.2,1.2-4.2,1.9-4.3,1.6s1.5-1.5,3.7-2.8,1.3-.3,1.5,0S749.6,571.94,747.4,573.14Z"/><path class="cls-2" d="M704.7,560.94s-5.5,7.2,2.5,18,14.6,20,12,26.8c0,0-12.1-20.2-22-20.4S693.8,573,704.7,560.94Z"/><path class="cls-3" d="M704.7,560.94a7.55,7.55,0,0,0-1.1,2.2c-9.6,11.3-14.8,21.9-5.5,22.1,8.6.2,19,15.7,21.4,19.5l-.3.9s-12.1-20.2-22-20.4S693.8,573,704.7,560.94Z"/><path class="cls-4" d="M694.5,570c0,2.5.3,4.6.6,4.6s.6-2,.6-4.6-.4-1.3-.7-1.3S694.5,567.54,694.5,570Z"/><path class="cls-4" d="M691,573.14c2.2,1.2,4.2,1.9,4.3,1.6s-1.5-1.5-3.7-2.8-1.3-.3-1.5,0S688.7,571.94,691,573.14Z"/><path class="cls-5" d="M696.2,604.74s15.4-.5,20-3.8,23.6-7.2,24.8-2,23.1,26.3,5.7,26.4-40.3-2.7-44.9-5.5S696.2,604.74,696.2,604.74Z"/><path class="cls-6" d="M747,623.64c-17.3.1-40.3-2.7-44.9-5.5-3.5-2.2-4.9-9.8-5.4-13.4h-.5s1,12.4,5.6,15.2,27.6,5.7,44.9,5.5c5,0,6.7-1.8,6.6-4.5C752.7,622.64,750.8,623.64,747,623.64Z"/><path class="cls-2" d="M149.7,610.44a11.38,11.38,0,0,0,3.8-5.8c.5-2.3-.5-5-2.7-5.9-2.5-.9-5.1.8-7.1,2.5s-4.3,3.7-6.9,3.3a10.34,10.34,0,0,0,3.2-9.8,4,4,0,0,0-.9-2c-1.4-1.5-3.8-.8-5.5.3-5.2,3.7-6.6,10.7-6.7,17.1-.5-2.3-.1-4.7-.1-7s-.7-5-2.6-6.2a7,7,0,0,0-4-.9c-2.3-.1-4.9.2-6.5,1.8-2,2.1-1.5,5.7.3,8s4.4,3.8,6.8,5.4a15.07,15.07,0,0,1,4.8,4.6c.1.3.3.5.4.8h14.6A41.73,41.73,0,0,0,149.7,610.44Z"/><path class="cls-7" d="M33.3,626.14s-14.1-47.7,2.6-82.8A75,75,0,0,0,42,496a123.39,123.39,0,0,0-6.7-22.2"/><path class="cls-2" d="M45.7,451.74c0,5.8-10.6,22.8-10.6,22.8s-10.6-17-10.6-22.8a10.6,10.6,0,0,1,21.2,0Z"/><path class="cls-2" d="M63.2,484c-3.2,4.9-21.3,13.4-21.3,13.4s.3-20,3.5-24.9A10.6,10.6,0,0,1,63.2,484Z"/><path class="cls-2" d="M62.4,539.44c-5.2,2.6-25.1.8-25.1.8s10.4-17.1,15.6-19.7a10.58,10.58,0,1,1,9.9,18.7C62.7,539.34,62.6,539.34,62.4,539.44Z"/><path class="cls-2" d="M52.4,581.14c-4.7,3.5-24.6,5-24.6,5s7.3-18.6,12-22.1a10.59,10.59,0,0,1,13.4,16.4,2.7,2.7,0,0,1-.8.7Z"/><path class="cls-2" d="M19.7,498.64c4.2,4.1,23.7,8.3,23.7,8.3s-4.8-19.4-9-23.5a10.61,10.61,0,1,0-15.2,14.8,1,1,0,0,1,.5.4Z"/><path class="cls-2" d="M8.6,547.54c5.2,2.6,25.1.8,25.1.8s-10.4-17.1-15.6-19.7a10.58,10.58,0,0,0-9.5,18.9Z"/><path class="cls-2" d="M4.4,596.64c4.7,3.5,24.6,5,24.6,5s-7.3-18.6-12-22.1a10.7,10.7,0,0,0-14.7,2.9,10.8,10.8,0,0,0,2.1,14.2Z"/><path class="cls-2" d="M45.7,451.74c0,5.8-10.6,22.8-10.6,22.8s-10.6-17-10.6-22.8a10.6,10.6,0,0,1,21.2,0Z"/><path class="cls-2" d="M63.2,484c-3.2,4.9-21.3,13.4-21.3,13.4s.3-20,3.5-24.9A10.6,10.6,0,0,1,63.2,484Z"/><path class="cls-2" d="M62.4,539.44c-5.2,2.6-25.1.8-25.1.8s10.4-17.1,15.6-19.7a10.58,10.58,0,1,1,9.9,18.7C62.7,539.34,62.6,539.34,62.4,539.44Z"/><path class="cls-2" d="M52.4,581.14c-4.7,3.5-24.6,5-24.6,5s7.3-18.6,12-22.1a10.59,10.59,0,0,1,13.4,16.4,2.7,2.7,0,0,1-.8.7Z"/><path class="cls-2" d="M19.7,498.64c4.2,4.1,23.7,8.3,23.7,8.3s-4.8-19.4-9-23.5a10.61,10.61,0,1,0-15.2,14.8,1,1,0,0,1,.5.4Z"/><path class="cls-2" d="M8.6,547.54c5.2,2.6,25.1.8,25.1.8s-10.4-17.1-15.6-19.7a10.58,10.58,0,0,0-9.5,18.9Z"/><path class="cls-2" d="M4.4,596.64c4.7,3.5,24.6,5,24.6,5s-7.3-18.6-12-22.1a10.7,10.7,0,0,0-14.7,2.9,10.8,10.8,0,0,0,2.1,14.2Z"/><path class="cls-5" d="M.1,623.14s17.1-3.4,21.7-7.9,25.1-12.5,27.4-6.8,30.8,24.9,11.4,28.3S15,641.24,9.3,639,.1,623.14.1,623.14Z"/><path class="cls-6" d="M60.5,634.64c-19.4,3.4-45.6,4.5-51.3,2.3-4.3-1.7-7.4-10-8.6-13.9l-.6.1s3.4,13.6,9.1,15.8,31.9,1.1,51.3-2.3c5.6-1,7.2-3.3,6.6-6.2C66.7,632.44,64.7,633.94,60.5,634.64Z"/><path class="cls-8" d="M604.8,189.74c5.4-6,3.3-15.4,3.3-15.4s-25.3-64.6-28.2-65.3S570,92,570,92s-67.6-64.2-70-64.2-27.1-17.7-30.2-18.1-8.1-2.1-13.4-5-58.8.4-60.9,2.8-12,4.3-12,4.3-20.1,1.1-22.9,4.6-23.6,5.4-23.6,5.4-10.2,3.8,3.6,13.9h0c-4.4.7-9.6,1.2-14.9,1.6-1.3.1-2.7.2-4,.2h-.8a13,13,0,0,0-4.9-6.6c-1.5-.8-3.1-1.5-4.7-2.2a32.8,32.8,0,0,1-6.9-4.8,228.94,228.94,0,0,0-32.7-21.7A15.81,15.81,0,0,0,265.9,0c-4.3-.4-8.1,2.6-12.3,3.6-7.4,1.8-14.8-2.7-22.4-2.8-9.5-.1-18.1,7.3-21,16.4-1.1,3.4-1.5,7.1-3.9,9.8-3,3.5-8.1,4-12.2,6.1a18.33,18.33,0,0,0-9.9,16.3v.1a8.6,8.6,0,0,0,.1,1.6c.5,4.3,2.5,8.2,3.9,12.3a52.19,52.19,0,0,1,2.8,12.9v.1a16.2,16.2,0,0,1,.1,2.2v2.6c0,3.8-.1,7.7-.1,11.5V95a7.57,7.57,0,0,0,.1,1.5V97c0,.5.1.9.1,1.4V99a6.75,6.75,0,0,0,.2,1.4l.1.6c.1.4.1.9.2,1.4l.1.6c.1.5.2,1,.3,1.4,0,.2.1.3.1.5.2.7.4,1.3.6,1.9a28.11,28.11,0,0,0,18.7,17.6,16.72,16.72,0,0,0,5,.6c3-.1,5.9-1,7.6-3.1.4.5.9,1,1.3,1.5a59.93,59.93,0,0,0,84.7,3.6,59.15,59.15,0,0,0,12.7-16.6l3.1-.6c1.8-.3,3.6-.7,5.5-1l1.8-.3h0l.7-.1c9-1.4,17.7-2.4,24-3l-24.7,3.1s-6,28.8-7.7,32,6,8.5,6,8.5,6.7,8.2,6.7,10.6,7.7,9.6,9.9,13.5a12.13,12.13,0,0,0,1,1.4,14.54,14.54,0,0,0-4.3,2.6c-4.9,4.6-3.3,12.8-5.5,19.1-1.4,4-4.3,7.2-7.1,10.4a12.43,12.43,0,0,0-2.5,3.5,9,9,0,0,0-.7,2.7h0a7.57,7.57,0,0,0-.1,1.5v.2a4.87,4.87,0,0,0,.1,1.2v.5c.5,4.2,1.9,8.2,2.3,12.4s-.1,8.4.8,12.5a19.85,19.85,0,0,0,1.4,4.1l-14.3,16a18.73,18.73,0,0,0-.1,2.1c-11.9,9.9-30.4,28.6-23.8,45.1.7,1.8,1.4,3.5,2,5.2-4.9,3.1-6.5,6.8.8,10.4a25.18,25.18,0,0,0,3.4,1.5c3.7,11,5.2,14,11.4,5.9.7-.9,1.5-2,2.3-3.2,8.8-.2,13.9-4.2,13.9-4.2s24.6-1.4,31,2.5c3.2,2,10.7,2.4,17.3,2.4a169.46,169.46,0,0,0,1,21.4s-1.1,30.2,1.8,36.5,4.4,17.4,4.4,17.4-4.7,10.6-1.9,16.3-2.5,13.8-2.5,13.8v20.9l2-.1c-.2,1.4-.3,2.9-.6,4.3-.6,3.3-1.5,6.2-2.8,7.2-3.5,2.5-3.9,16-3.9,16s-5.6,16.3-4.6,19.2-6.7,8.5-4.9,12.8,5.4,31.2,8.5,39-6.4,5.7-6.4,5.7l2.8,20.2s2.8,20.6.7,22-14.2,11.7-5.9,17.7a22.63,22.63,0,0,0,2,1.3,26.2,26.2,0,0,1-.1,2.8c-.2,1.6-.6,2.9-1.5,3-2.5.4-7.4,2.8-8.5,1.8s-7,2.7-13,3.9l-.8.1-7.8-2a54.45,54.45,0,0,0-35.2-1.3s-5.6.9-8.4,5.1c-1.4,2.2-2,5.2-.8,9.4,3.8,12.5,29.4,16.9,29.4,16.9s8.9,1.8,19.5,4.2h-1.1a11.8,11.8,0,1,0,11.7,11.9,11.67,11.67,0,0,0-7.7-11.1c12,2.8,25.3,6.1,30.7,8.5a87.11,87.11,0,0,0,12.3,3.7,11.74,11.74,0,0,0,12.6,10.7,11.6,11.6,0,0,0,9.1-5.8c16.3,3.4,32.1,6.3,32.1,6.3l26.3.4h.2a11.7,11.7,0,1,0,.2,0l39.8.7a11.74,11.74,0,1,0,22.5,6.7,13.32,13.32,0,0,0,.5-3.4,9.67,9.67,0,0,0-.4-2.9l35.1.6,7-7.7a6.65,6.65,0,0,0,.7-2.4c.2-2.5-1.1-6.4-10.1-8-.7-.1-18.9.2-35.1.4v-6.3s-.5-3.5-.7-7.6c-.1-1.2-.2-2.5-.2-3.7a10.32,10.32,0,0,0,3,1.4c6.7,1.1,15.8-18.5,15.8-18.5s0-11,2.1-19.9,6-38.7,6-38.7l8.5-35.8s3.5-73.1,1.7-75.9,2.1-7.8,2.1-7.8,2.8-15.6-1.4-20.9,2.5-10.7,2.5-10.7,1.8-18.5-3.2-25.5,2.3-12.1,2.3-12.1l1.8-28.7c7.4-7.5,14.1-51.8,14.4-61.4a39.88,39.88,0,0,1,3.5-15.6s4.9-7.5,5.6-12.4,6-15.2,6-15.2l9.2-34.1c3.7-13.7,2.8-23.9.3-31.1A9,9,0,0,0,604.8,189.74Zm-165.3,2c5.6,3.5,3.9,4.6,5.6,6.7s.3,1.8-1.1,5.3-.3,2.5.3,6.4.4,3.9.4,3.9l1.8.2-2.4,16.5c-4,2.6-5.8,7.6-6.7,12.8-2.4-3.1-4.7-6.3-6.9-9.3.7-1.6.6-3.6.6-5.4.1-6,2.3-11.7,3.3-17.6a42.5,42.5,0,0,0-.6-18.1,28.75,28.75,0,0,0-2.3-6.4c2.3,1.5,5.2,3.3,8,5Zm6.3,347.7s4.5-3,8.8-5.7c1.5,10.5,2.8,21.5,3.8,31.4-1.5-3.4-2.6-5.8-2.6-5.8a12,12,0,0,1-2.7-6.7c-.3-3.9-7.3-13.1-7.3-13.2Zm-26.4-364.7c1,.1,2.4,1.4,3.8,2.9-1.3-1-2.5-2-3.8-2.9ZM355,306c-4.1,1.3-17.8,1.1-26,.6,3.1-5.2,6.1-10.5,8.8-15.3a40.48,40.48,0,0,0,4.8.9l26.8-23.5a46.13,46.13,0,0,0,31.1-.2l.7,1.1c.3.5.6,1,1,1.6l-.7-1.1s-10.3,6.2-9.3,9-1.4,9.9-5.3,17.5q-1.5,2.85-2.7,5.7C375.6,303,359,304.74,355,306Zm50.8,327.8-.2-2.8c1.7-.4,2.8-.7,2.8-.7a102.87,102.87,0,0,0-1.8-12.4c-1.1-4.3-.5-2.8,3.6-6s0-39,0-39,2-2.5,5.2,3.9,6.3,10.3,7.4,10.6-4.2,7.5,0,14.2a42.82,42.82,0,0,1,5.3,14.2s-2.8,11.3,1.4,16.3a7.18,7.18,0,0,0,2,1.4v2.8a30.57,30.57,0,0,1-.1,3.8,1.44,1.44,0,0,1-1.6,1.2.86.86,0,0,1-.6-.3c-1.1-.7-8,.9-7.5,5.3a33.88,33.88,0,0,1-5.5,5.2l-9.6-2.5Z"/><path class="cls-2" d="M319.4,266.24s-3.4,27.5,23.2,30.3l4-19-8.4-11.3-12-4.1Z"/><path class="cls-3" d="M326.3,262.14l-6.9,4s-3.4,27.5,23.2,30.3"/><path class="cls-9" d="M367.7,111s-17.9,1.1-35.9,4.1c-1.8.3-3.7.6-5.5,1-1.1.2-2.1.4-3.1.6-9.4,1.9-18,4.5-23,7.7-6,3.9-8-6.5-8.2-20.9-.1-5.1.1-10.6.4-16.2.4-6.5.9-13.1,1.4-19,1.2-13.1,2.6-23.3,2.6-23.3s6.3,0,14.7-.3l2.7-.1c2.6-.1,5.4-.2,8.2-.4,1.3-.1,2.7-.1,4-.2,5.3-.4,10.6-.9,15-1.6,4.7-.8,8.5-1.7,10.6-3C361,33.64,367.7,111,367.7,111Z"/><path class="cls-10" d="M447.5,212.34l-3.5,23.2s-7.6,9.5-6.6,14.8,9.8,238.6,9.8,238.6,17.3,98.6,11.3,111.3-.3,42.2-.3,42.2l35.9-5.6,12-430.8Z"/><path class="cls-11" d="M447.5,212.34l-3.5,23.2s-7.6,9.5-6.6,14.8,9.8,238.6,9.8,238.6,17.3,98.6,11.3,111.3-.3,42.2-.3,42.2l35.9-5.6,12-430.8Z"/><path class="cls-12" d="M526.7,648.44c-1.1,1.9-1,7.5-.7,12.2.3,4.1.7,7.5.7,7.5V692s-38.4-13.4-59.5-27.5c-8.7-5.8-11.2-11.2-10.7-15.5.7-6.2,7.4-10.2,10.7-10.2s13.1-5.5,21.3-10.4c6.4-3.8,11.8-7.2,11.8-7.2S528.8,644.94,526.7,648.44Z"/><path class="cls-3" d="M526.7,648.44c-1.1,1.9-1,7.5-.7,12.2-8.5-4-34.9-29.6-37.4-32.1,6.4-3.8,11.8-7.2,11.8-7.2S528.8,644.94,526.7,648.44Z"/><path class="cls-13" d="M605.6,228.54l-9.2,33.8s-5.3,10.2-6,15.1-5.6,12.3-5.6,12.3a39.4,39.4,0,0,0-3.5,15.5c-.3,9.5-7,53.5-14.4,60.9l-1.8,28.5s-7,4.9-2.1,12,3.2,25.3,3.2,25.3-6.7,5.3-2.5,10.6,1.4,20.8,1.4,20.8-3.9,4.9-2.1,7.7-1.7,75.3-1.7,75.3l-8.5,35.5s-3.9,29.6-6,38.4-2.1,19.7-2.1,19.7-9.2,19.4-15.8,18.3-39.1-32.7-39.1-32.7l4.6-107s3.9-45.4,1.4-54.2-4.2-52.8-4.2-52.8l-4.9-69.3-49.2-77.4s-3.6-22.5,6.6-29.2l1.8-12.2,1.7-11.1L506,206l89.4-23.2s6.9,4.2,10.5,14.9C608.3,204.84,609.3,214.94,605.6,228.54Z"/><path class="cls-9" d="M450,264.14s-41.5,51-39.8,36.8c1.1-9-4.6-19.9-9-26.8a77.83,77.83,0,0,0-4.8-6.8s25.3-46.5,26.8-40.1c.5,2,3.4,6.6,7.2,11.8C438.4,250,450,264.14,450,264.14Z"/><path class="cls-14" d="M526.7,687.14v5s-38.4-13.4-59.5-27.5c-8.7-5.8-11.2-11.2-10.7-15.5,11.7,5.9,33.3,17.2,39.9,22.2C502,675.64,516.5,682.44,526.7,687.14Z"/><circle class="cls-12" cx="517.7" cy="694.34" r="11.7"/><circle class="cls-12" cx="397.94" cy="677.94" r="11.7"/><path class="cls-2" d="M571.9,682a7.28,7.28,0,0,1-.7,2.4l-7,7.6-97.8-1.6-26.3-.4s-55.4-10.1-66.2-14.8-53.2-13.3-53.2-13.3-25.6-4.3-29.4-16.7c-1.3-4.2-.6-7.2.8-9.4,2.7-4.2,8.4-5.1,8.4-5.1a55.12,55.12,0,0,1,35.2,1.3l164,42.2,2.5.7s58.5-1.1,59.6-.9C570.8,675.74,572.1,679.54,571.9,682Z"/><path class="cls-14" d="M571.9,682c-9.8-1.3-27-3.2-31.4-1.3,0,0-31.2-3.9-74.2,9.8l-26.3-.4s-55.4-10.1-66.2-14.8S320.6,662,320.6,662s-25.6-4.3-29.4-16.7c-1.3-4.2-.6-7.2.8-9.4,1.8,5.1,5.1,12.5,10.5,14.6,8.5,3.2,43.2,9.9,43.2,9.9l68.7,16.8s39.7,8.6,55.1,3c6.3-2.3,18.2-4.3,30-5.9l2.5.7s58.5-1.1,59.6-.9C570.8,675.74,572.1,679.54,571.9,682Z"/><path class="cls-12" d="M477,669.44c-.1,1.5-.3,2.9-.5,4.4,0,0-38.9,1.4-59.1-1.6-5.6-.8-8.8-2.6-10.3-4.8a7.3,7.3,0,0,1-.7-7,10.84,10.84,0,0,1,.8-1.9c1.5-2.6,3.8-4.5,5.1-4.3,3.5.7,9.6-6.5,9.6-6.5-.5-4.4,6.5-6,7.5-5.3a1.36,1.36,0,0,0,2-.3l.3-.6a30.57,30.57,0,0,0,.1-3.8c0-3.1-.1-7-.1-7l39.1,4.8,1.5,7.5c1.4,6.7,3.4,15.8,4.2,18.9A27.09,27.09,0,0,1,477,669.44Z"/><path class="cls-3" d="M477,669.44c-.1,1.5-.3,2.9-.5,4.4,0,0-38.9,1.4-59.1-1.6-5.6-.8-8.8-2.6-10.3-4.8,5.2-.3,11.9-.5,16.1.5C429,669.44,464.7,669.44,477,669.44Z"/><path class="cls-12" d="M407,658.54a2,2,0,0,1-.8,1.9c-4.9,3.8-28.5-.3-28.5-.3s-48.2-3-55.5-7.9a4.36,4.36,0,0,1-1.6-1.7c-3-5.4,7.9-14.5,8.8-14.5s13.9-1.8,14.8-1.9c6-1.2,12-4.9,13-3.9s6-1.4,8.4-1.8c.9-.1,1.3-1.4,1.5-3a35.06,35.06,0,0,0-.2-6.5l38.5,10.4.3,6.1,1.1,20.4.1,2.5C407,658.34,407,658.44,407,658.54Z"/><path class="cls-3" d="M377.7,660s-48.2-3-55.5-7.9a4.36,4.36,0,0,1-1.6-1.7c9.8.8,26.1,2.2,29,2.9,4.2,1,28,2.5,28,2.5h29.2l.1,2.5C408.3,665.44,377.7,660,377.7,660Z"/><circle class="cls-12" cx="339.1" cy="677.94" r="11.7"/><circle class="cls-12" cx="466.5" cy="702.24" r="11.7"/><path class="cls-9" d="M347.3,278.94s-2.2,4-5.6,9.9c-8,14.1-22.4,39.1-28.6,47.1-8.8,11.3-8.1.7-17.6-22.9-7.1-17.5,14.7-37.6,26.3-46.7,4-3.2,6.8-5,6.8-5Z"/><path class="cls-9" d="M389.8,306s-29.2,2.5-34.8,4.2-29.9.7-32,0-43.6,8.8-24.6,18.3,31,0,31,0,24.6-1.4,31,2.5,29.6,1.8,29.6,1.8Z"/><path class="cls-3" d="M329.1,90.64c3.6,9.2,1.4,17.2-2.9,25.5-10.6,2-20.6,4.8-26.2,8.3-15.8,10.2-3.9-79.5-3.9-79.5s7.7,0,17.4-.4C310.6,57.94,321.8,71.84,329.1,90.64Z"/><path class="cls-9" d="M330,88.64a59.94,59.94,0,1,1-6-26.3A58.57,58.57,0,0,1,330,88.64Z"/><path class="cls-3" d="M605.9,197.74a13.33,13.33,0,0,1-8,5.5c-13.7,3.9-110.5,27.1-116.8,25.7-5.6-1.2-29.6-4.7-35.1-5.5l1.7-11.1,58.4-6.3,89.4-23.2C595.4,182.84,602.3,187,605.9,197.74Z"/><path class="cls-3" d="M367.7,111c-11.4.7-22.8,2-34.1,3.8a2.22,2.22,0,0,0-.1-1.6l23.4-2.9s-3.4-55-16-68.2c4.7-.8,8.5-1.7,10.6-3C361,33.64,367.7,111,367.7,111Z"/><path class="cls-2" d="M337,28.44s20.8-1.9,23.6-5.4,22.9-4.6,22.9-4.6,9.8-1.8,12-4.2,55.6-5.6,60.9-2.8,10.2,4.6,13.4,4.9,27.8,17.9,30.3,17.9,70,63.7,70,63.7,7,16.2,9.9,16.9,28.2,64.8,28.2,64.8,3.5,15.5-10.2,19.4-110.7,27.1-117,25.7-36.2-5.6-36.2-5.6.3,0-.3-3.9-1.8-2.8-.4-6.3,2.8-3.2,1.1-5.3,0-3.2-5.6-6.7-12-7.4-12.3-8.4-5.3-8.1-7.7-8.5-71.5-19.7-71.5-19.7L331.9,155s-7.7-5.3-6-8.4,7.7-31.8,7.7-31.8l24.8-3.1s-3.7-59.6-17.6-69.6S337,28.44,337,28.44Z"/><path class="cls-3" d="M347.3,278.94s-2.2,4-5.6,9.9c-.5-18.4-13.4-21.9-19.9-22.5,4-3.2,6.8-5,6.8-5Z"/><path class="cls-2" d="M330,145.54l1.7,9.5s6.7,8.1,6.7,10.6,7.7,9.5,9.9,13.4,9.5,4.6,6.7,11.3S336,248,336,248l-16.5,18.3s27.4-2.5,23.2,30.3l35.5-31L406,215s-27.1-51.4-28.2-55.6S330,145.54,330,145.54Z"/><path class="cls-3" d="M412.4,163.14s22.5-15.8,22.5-17.6S412.4,163.14,412.4,163.14Z"/><path class="cls-3" d="M450,182.84s12-2.8,13-9.1S450,182.84,450,182.84Z"/><path class="cls-3" d="M459.9,199s16.9-8.4,16.2-9.8S459.9,199,459.9,199Z"/><path class="cls-3" d="M550.3,145.44s-7,4.6-4.9,8.9S550.3,145.44,550.3,145.44Z"/><path class="cls-3" d="M571,147.24s-19.9,19-15.4,19.4S571,147.24,571,147.24Z"/><path class="cls-3" d="M525.7,441.84s25.7,4.9,26.4,6.7S525.7,441.84,525.7,441.84Z"/><path class="cls-3" d="M534.8,458.74s13.7,8.5,14.1,10.9S534.8,458.74,534.8,458.74Z"/><path class="cls-3" d="M531.7,477.74s2.1,9.5,5.6,10.9S531.7,477.74,531.7,477.74Z"/><path class="cls-3" d="M324.1,62v.3c-.5,3.1-1.8,6.5-4.7,7.6a7.44,7.44,0,0,1-5.3-.5c-5-2.2-9.5-7.4-14.8-6.2-2.5.6-4.3,2.5-5.6,4.9a25,25,0,0,0-2,5.4c-1,3.9-1.8,8.2-.3,11.9l.9,1.8c1.4,2.3,3.4,4.2,4.8,6.5,1.7,2.9,2.2,7.1-.5,9.1a5.56,5.56,0,0,1-4.7.6,29,29,0,0,1-5.7-2.5c-3.5-1.9-8-3-11.4-.9-1.2.7-2.1,1.8-3.2,2.5a11.53,11.53,0,0,1-7.7,1.6c-6.4-.6-8.7-4.7-13.6-7.8-3.6-2.3-11-3.3-13.1,1.4-1.4,3,.7,6.8-.7,9.8s-5.6,4-7.5,6.8c-2.6,3.7-.2,9.1-2.1,13.3a17.39,17.39,0,0,1-1.1,1.8,60.18,60.18,0,0,1,85.1-85l2.7-.1c2.6-.1,5.4-.2,8.2-.4a17.61,17.61,0,0,1,1.5,4.4A35.38,35.38,0,0,1,324.1,62Z"/><path class="cls-12" d="M235.8,96.44c-1.4,3,.6,6.8-.7,9.8s-5.6,4-7.5,6.8c-2.6,3.8-.2,9.2-2.1,13.3-2.2,4.7-8.7,5.5-13.7,4.1A28.26,28.26,0,0,1,193.1,113c-3.4-9.6-1.2-20.3-2.1-30.5a50.47,50.47,0,0,0-2.8-12.8c-1.5-4-3.4-7.9-3.9-12.2a18.09,18.09,0,0,1,9.8-17.8c4.1-2,9.2-2.6,12.2-6,2.3-2.7,2.8-6.4,3.9-9.7,2.9-9,11.5-16.3,21-16.2,7.6.1,15,4.5,22.4,2.8,4.2-1,8-4,12.3-3.6a14.58,14.58,0,0,1,5.8,2.2,227.63,227.63,0,0,1,32.7,21.5,36.51,36.51,0,0,0,6.9,4.7,39.58,39.58,0,0,1,4.7,2.1c3.2,2,4.9,5.8,5.8,9.5a34.72,34.72,0,0,1,.7,13.6c-.4,3.2-1.7,6.8-4.8,7.9a7.44,7.44,0,0,1-5.3-.5c-5-2.2-9.4-7.4-14.8-6.2-4.4,1-6.5,5.9-7.6,10.3-1,3.9-1.8,8.2-.3,11.9,1.3,3.1,4,5.4,5.7,8.2s2.2,7.2-.5,9.1c-3,2.2-7.1-.1-10.4-1.9-3.5-1.9-8-3-11.4-.9-1.1.7-2.1,1.8-3.2,2.5a11.53,11.53,0,0,1-7.7,1.6c-6.4-.6-8.8-4.7-13.6-7.8C245.3,92.74,237.9,91.74,235.8,96.44Z"/><path class="cls-3" d="M430.4,239c-.3,1.5-2.3,1.7-2.8,3.1-4,14.1-12.8,26.8-26.4,32a77.83,77.83,0,0,0-4.8-6.8s25.3-46.5,26.8-40.1C423.7,229.14,426.6,233.74,430.4,239Z"/><path class="cls-9" d="M431.2,229.24a46.5,46.5,0,1,1-46.5-46.5h0a46.33,46.33,0,0,1,46.5,46.1Z"/><path class="cls-3" d="M405.5,629.24l.3,6.1c-4.1.9-11.8,2.1-16.3-.7-5.8-3.6-14.4-4.4-22.3-9.3a35.06,35.06,0,0,0-.2-6.5Z"/><path class="cls-3" d="M472.2,643c-.3,1.4-.5,2.2-.5,2.2s-31-3.2-40-7.5c0-3.1-.1-7-.1-7l39.1,4.8Z"/><path class="cls-15" d="M465.1,503.44c-2.1,5.6-3.2,6.7-1,9.5s1,17.6-2.3,19-16,9.8-16,9.8,7,9.2,7.2,13a11.71,11.71,0,0,0,2.7,6.7s10.8,23.2,13,30.6,4.1,19,4.1,19-3.8,10.6-1.2,16.5,0,14.8,0,14.8-37.8-3.9-42-8.8-1.4-16.2-1.4-16.2a41.5,41.5,0,0,0-5.3-14.1c-4.2-6.7,1-13.7,0-14.1s-4.2-4.2-7.4-10.5-5.2-3.9-5.2-3.9,4.1,35.5,0,38.7-4.7,1.8-3.6,6q1.2,6.15,1.8,12.3s-12.7,3.9-19,0-15.9-4.6-24.2-10.6,3.8-16.2,5.9-17.6-.7-21.8-.7-21.8l-2.8-20.1s9.5,2.1,6.4-5.6-6.7-34.5-8.5-38.7,6-9.9,4.9-12.7,4.6-19,4.6-19,.4-13.4,3.9-15.9c1.3-.9,2.2-3.9,2.8-7.1a89.47,89.47,0,0,0,1.1-11.5s80.6-5.6,93.6,2.1c5.9,3.5,5.5,9.9,3,16.4-3,7.9-9.2,16-10.7,18.9C465.9,494.14,467.3,497.84,465.1,503.44Z"/><path class="cls-3" d="M479.4,469.84c-10,2.8-23.3,6.9-25.5,9.3-3.5,3.9-15.5-21.8-15.5-21.8s.7,19.3-15.1,11.2c-13.7-7-35.8-6.1-41.6-5.7a89.47,89.47,0,0,0,1.1-11.5s80.6-5.6,93.6,2.1C482.3,456.94,481.9,463.34,479.4,469.84Z"/><path class="cls-16" d="M438.4,257.14s7-8.5,8.5-5.3,9.7,9.5,9.7,9.5,2.4,7.4,6.5,8.5,35.5,43.3,35.5,43.3L487.3,336l-9.2,55.6s.4,8.8-2.1,12-12,2.5-7.6,6.3,10.7,7.4,14.3,25,7.7,27.8,7.7,27.8-33.1,8.5-36.6,12.3-15.5-21.8-15.5-21.8.7,19.3-15.1,11.2-42.9-5.6-42.9-5.6V438s5.3-8.1,2.5-13.7,1.9-16.2,1.9-16.2-1.6-10.9-4.4-17.2-1.8-36.2-1.8-36.2-2.1-19.4-.2-29.2A89.55,89.55,0,0,1,387,301c3.9-7.5,6.3-14.6,5.3-17.4s9.3-8.9,9.3-8.9l5.7,9.3,1.5,5.5C408.8,289.34,439.1,267.64,438.4,257.14Z"/><path class="cls-9" d="M489,306s19.7,19.4,21.8,22.5,9.2,19.7,0,24.7-45,12.7-48.6,10-25,3-25,3-35.9,8.8-28.1-5.6,26-12,26-12,29.6,0,32.7-3,27-9.3,21.6-22.3S489,306,489,306Z"/><path class="cls-3" d="M431.2,392.54s-45.9,39.8-41.3,39.8S431.2,392.54,431.2,392.54Z"/><path class="cls-3" d="M461.8,408.74s-14.6,3.5-11.8,5.6S461.8,408.74,461.8,408.74Z"/><path class="cls-3" d="M410.3,312.34s18.2,1.6,15,7.3S410.3,312.34,410.3,312.34Z"/><path class="cls-3" d="M399,483.24s-2.5,7.2,0,11,0,13,0,13v32s-.3,23.2,8.1,31.3Z"/><path class="cls-3" d="M374.9,582.94s4.9,7.2,5.6,9.8S374.9,582.94,374.9,582.94Z"/><path class="cls-3" d="M376.1,568.54s11.4-2.1,13.2-.9S376.1,568.54,376.1,568.54Z"/><path class="cls-3" d="M372.8,611.64s-3.3.3,3.3,4,19.7,8.3,19.9,6.7S372.8,611.64,372.8,611.64Z"/><path class="cls-3" d="M421.7,576.64c1.2,0,15.9-.9,15.1,1.4S421.7,576.64,421.7,576.64Z"/><path class="cls-3" d="M441.7,556s3.3-5.8,4.6-3.3S441.7,556,441.7,556Z"/><path class="cls-3" d="M431.2,229.24a46.55,46.55,0,0,1-1.8,12.8c-1.9,1.8-5.3,1.8-7.7.5-2.8-1.5-4.6-4.3-6.5-7s-3.9-5.3-6.9-6.5c-3.8-1.4-8.1,0-11.3,2.4s-5.9,5.5-9,8-7,4.6-11,3.9c-2.5-.4-4.8-1.8-7-3.2-3-1.9-6.2-4.8-9.5-6.1s-6,1-9.1,1c-2.5.9-5.2,3-4.7,5.5a8.45,8.45,0,0,0,1.3,2.7,11.11,11.11,0,0,1-1.5,12.4,46.43,46.43,0,0,1,76.4-52.8,45.92,45.92,0,0,1,8.3,26.4Z"/><path class="cls-12" d="M351.4,233.74c-2.5.9-5.2,3-4.7,5.5a8.45,8.45,0,0,0,1.3,2.7c2.9,5.2.5,12.7-5,15.1a4.5,4.5,0,0,1-2.8.4,4.15,4.15,0,0,1-2-1.2,18.51,18.51,0,0,1-5.8-10c-.9-4-.3-8.2-.8-12.4s-1.9-8.2-2.3-12.3a12.77,12.77,0,0,1,.6-6.1,17.18,17.18,0,0,1,2.5-3.5c2.8-3.1,5.7-6.3,7.1-10.3,2.2-6.3.6-14.4,5.5-19,2.3-2.1,5.4-2.9,8.2-4.2a53.1,53.1,0,0,0,7.5-4.8c9-6.2,20-11,30.8-8.8a41.87,41.87,0,0,1,12.2,5,148.45,148.45,0,0,1,20,13.4,29.93,29.93,0,0,1,7,7.2,26.45,26.45,0,0,1,3.1,7.6,45.46,45.46,0,0,1,.6,18c-1,5.9-3.3,11.5-3.4,17.5,0,2,.2,4.2-.9,5.9-1.7,2.7-5.7,3-8.5,1.5s-4.6-4.3-6.4-7-3.9-5.3-6.9-6.5c-3.8-1.4-8.1,0-11.3,2.4s-5.9,5.5-9,8-7,4.6-11,3.9c-2.5-.4-4.8-1.8-7-3.2-3-1.9-6.2-4.8-9.5-6.1S354.5,233.74,351.4,233.74Z"/><path class="cls-9" d="M458.1,306s-51.7,47.9-41.2,71.8,57-18.3,57-18.3l16.6-38.3Z"/><g class="cls-17"><path d="M343,254.14a4.5,4.5,0,0,1-2.8.4,4.15,4.15,0,0,1-2-1.2,18.6,18.6,0,0,1-5.8-9.9c-.9-4-.3-8.2-.8-12.4s-1.9-8.1-2.3-12.3v-.6a19.3,19.3,0,0,0,0,3.4c.5,4.1,1.9,8.1,2.3,12.3s-.1,8.3.8,12.4a18.6,18.6,0,0,0,5.8,10,4.15,4.15,0,0,0,2,1.2,4.6,4.6,0,0,0,2.8-.4c4.3-1.9,6.7-6.9,6.2-11.5A11.14,11.14,0,0,1,343,254.14Z"/><path d="M434.5,213.44c-1,5.9-3.3,11.5-3.3,17.5,0,2,.2,4.2-.9,5.9-1.6,2.7-5.7,3-8.5,1.5s-4.6-4.3-6.5-7-3.9-5.3-6.9-6.5c-3.8-1.4-8.1,0-11.3,2.4s-5.9,5.5-9,8-7,4.6-11,4c-2.5-.4-4.8-1.8-7-3.2-3-1.9-6.2-4.8-9.5-6.1s-6,1-9.1,1c-2.5.9-5.2,3-4.7,5.6a6.89,6.89,0,0,0,.3.8,8.06,8.06,0,0,1,4.5-3.6c3.1,0,5.9-2.2,9.1-1s6.5,4.2,9.5,6.1c2.2,1.4,4.4,2.8,7,3.2,4,.6,7.9-1.4,11-3.9s5.7-5.7,9-8,7.6-3.8,11.3-2.4c3,1.1,5.1,3.8,6.9,6.5s3.7,5.4,6.5,7,6.9,1.3,8.5-1.5c1-1.7.8-3.9.9-5.9.1-6,2.3-11.6,3.3-17.5a46.42,46.42,0,0,0,.6-9.1C435,209.24,434.8,211.34,434.5,213.44Z"/></g><path class="cls-3" d="M396.2,62.44s-19,34.5,7,52.1,28.5,15.8,28.5,15.8-.4,4.2,0,5.3,7,3.5,7,3.5,8.1,13,19.7,18.7,13.7,19,13.7,19,0,4.6,6,8.8,10.6,16.5,10.6,16.5v11.3c0,1.8,2.1,7-2.5,7.6s-.7,11.1-.7,11.1-4.9,6-3.9,8.8-2.1,8.4-2.1,8.4-3.9,5.6-3.5,6.7-4.2,4.9-3.2,7.4-5.3,5.6-4.2,8.5-4.5,4.2-4.5,4.2l-15.2,35.2s32,7,40.3,24.6L529.5,262s22.5-55.2,23.2-58.8-4.9-16.2-4.9-16.2l-27.5-50-41.2-58.1C479.2,78.94,446.5,9.34,396.2,62.44Z"/><path class="cls-3" d="M436.8,77s-49.4,17.4-23.4,34.9,28.5,15.8,28.5,15.8a30.51,30.51,0,0,0,0,5.3c.3,1.1,7,3.5,7,3.5s8.1,13,19.7,18.7,13.7,19,13.7,19,0,4.6,6,8.8,10.6,16.5,10.6,16.5v11.3c0,1.8,2.1,7-2.5,7.6s-.7,11.1-.7,11.1-4.9,6-3.9,8.8-2.1,8.5-2.1,8.5-3.9,5.6-3.5,6.7-4.2,4.9-3.2,7.4-5.3,5.6-4.2,8.5-4.5,4.2-4.5,4.2l-15.2,35.1s26.4,1.4,34.7,19l45.9-68.2s22.5-55.2,23.2-58.8-4.9-16.2-4.9-16.2l-27.5-50-62.6-36.1C468,98.34,487.1,23.84,436.8,77Z"/><path class="cls-2" d="M399,62.44s-19,34.5,7,52.1,28.5,15.8,28.5,15.8a30.51,30.51,0,0,0,0,5.3c.3,1.1,7,3.5,7,3.5s8.1,13,19.7,18.7,13.7,19,13.7,19,0,4.6,6,8.8,10.6,16.5,10.6,16.5v11.3c0,1.8,2.1,7-2.5,7.6s-.7,11.1-.7,11.1-4.9,6-3.9,8.8-2.1,8.4-2.1,8.4-3.9,5.6-3.5,6.7-4.2,4.9-3.2,7.4-5.3,5.6-4.2,8.5-4.5,4.2-4.5,4.2l-15.2,35.2s31.9,7,40.2,24.6L532.2,262s22.5-55.2,23.2-58.8-4.9-16.2-4.9-16.2L523,137l-41.2-58.1C482,79,449.3,9.34,399,62.44Z"/><g class="cls-17"><path d="M191.1,79.74a50.47,50.47,0,0,0-2.8-12.8c-1.5-4-3.4-7.9-3.9-12.2v-.4a17.1,17.1,0,0,0,0,3.2c.5,4.2,2.5,8.2,3.9,12.2a50.47,50.47,0,0,1,2.8,12.8c.1,1.6.2,3.3.2,5A67.72,67.72,0,0,0,191.1,79.74Z"/><path d="M225.5,123.64c-2.1,4.7-8.7,5.5-13.7,4.1a28.26,28.26,0,0,1-18.7-17.4,40.13,40.13,0,0,1-2-13.3c-.1,5.5.1,10.9,2,16.1a28.18,28.18,0,0,0,18.7,17.5c5,1.4,11.5.6,13.7-4.1.9-2,.8-4.3.8-6.6A9.86,9.86,0,0,1,225.5,123.64Z"/><path d="M322.7,57.84c-.4,3.2-1.7,6.8-4.8,7.9a7.44,7.44,0,0,1-5.3-.5c-5-2.2-9.5-7.4-14.8-6.2-4.4,1-6.5,5.9-7.6,10.3a26.84,26.84,0,0,0-1.1,8.5,28.67,28.67,0,0,1,1.1-5.7c1.1-4.3,3.2-9.2,7.6-10.3,5.3-1.3,9.8,4,14.8,6.2a7.54,7.54,0,0,0,5.3.5c3-1.1,4.3-4.7,4.8-7.9a31.83,31.83,0,0,0,.3-6.2C322.9,55.64,322.8,56.74,322.7,57.84Z"/><path d="M295.1,98.64c-3,2.2-7.1-.1-10.4-1.9-3.5-1.9-8-3-11.4-.9-1.1.7-2.1,1.8-3.2,2.5a11.53,11.53,0,0,1-7.7,1.6c-6.4-.6-8.8-4.7-13.6-7.8-3.6-2.3-11-3.3-13.1,1.4a9,9,0,0,0-.4,4.3,8.33,8.33,0,0,1,.4-1.5c2.1-4.7,9.6-3.7,13.1-1.4,4.9,3.1,7.2,7.1,13.6,7.8a11.53,11.53,0,0,0,7.7-1.6,39.19,39.19,0,0,1,3.2-2.5c3.4-2.1,7.8-1,11.4.9,3.3,1.7,7.3,4,10.4,1.9,1.8-1.3,2.2-3.5,1.8-5.7A4.53,4.53,0,0,1,295.1,98.64Z"/><path d="M235.1,103.44c-1.4,3.1-5.6,4-7.5,6.8-1.5,2.1-1.3,4.7-1.3,7.4a7.89,7.89,0,0,1,1.3-4.5c1.9-2.8,6.1-3.7,7.5-6.8a8.93,8.93,0,0,0,.4-4.3A5.73,5.73,0,0,1,235.1,103.44Z"/></g></g></g></svg>