<svg xmlns="http://www.w3.org/2000/svg" viewBox="0 0 90.81 291.41"><defs><style>.cls-1{fill:#3f3d56;}.cls-2{fill:#2f2e41;}.cls-3{fill:#d3d3d3;}.cls-4{fill:#f2f2f2;}.cls-5,.cls-8{isolation:isolate;}.cls-5{opacity:0.73;}.cls-6{fill:#515151;}.cls-7{fill:#878787;}.cls-8{opacity:0.1;}.cls-9{fill:#a5a5a5;}.cls-10{fill:#d6d6d6;}.cls-11{fill:#300;}</style></defs><g id="Layer_2" data-name="Layer 2"><g id="Layer_1-2" data-name="Layer 1"><polygon class="cls-1" points="67.09 12.3 52.39 12.3 52.39 25.6 68.39 25.6 68.39 12.3 67.09 12.3"/><path class="cls-2" d="M38,10.2s1,1.2-.7,3.4-.3,7.2,3,7.3,5,1.5,4.1,3.4-1.8,6.2,1.9,5.5,4.8.8,4.1,1.9A26.59,26.59,0,0,0,52,29.5s2,3,4.5.9S60,9.2,54.89,8.8,38,10.2,38,10.2Z"/><polygon class="cls-3" points="63.69 101.2 64.89 109.3 70.09 109.3 68.29 100 63.69 101.2"/><path class="cls-4" d="M70.59,104.4s6.9,6.3,5.2,6.9-8.1,7.5-9.2,8.1-12.1,4-10.4,0a15.32,15.32,0,0,1,5.8-6.3l1.2-6.9Z"/><path class="cls-5" d="M70.59,104.4s6.9,6.3,5.2,6.9-8.1,7.5-9.2,8.1-12.1,4-10.4,0a15.32,15.32,0,0,1,5.8-6.3l1.2-6.9Z"/><polygon class="cls-3" points="70.59 95.1 71.79 103.2 76.99 103.2 75.29 94 70.59 95.1"/><path class="cls-4" d="M48.89,73.7l7.6-25s-12.7-11.5-4-15,11,13.8,11,13.8l-2.9,30H49.09Z"/><path class="cls-6" d="M66.59,55.3S51.69,74.4,54,77.3s6.3,20.1,6.3,20.1-.6,6.9,1.7,6.9,8.1-1.2,8.1-2.9-5.2-23.7-5.2-23.7l15-19.6Z"/><path class="cls-6" d="M67.79,56.5l15-8.1s10.4,5.2,7.5,9.8-16.2,16.7-16.2,16.7,4,19.6,3.5,20.2-6.9,2.9-8.7,2.3-11-23.1-8.7-24.2S70,59.9,70,59.9Z"/><path class="cls-2" d="M26.79,277.2s10.4,6.3,11.5,6.3,16.7,4,9.8,6.9-33.5-1.2-32.9-2.9,0-12.1,1.2-12.1S26.79,277.2,26.79,277.2Z"/><path class="cls-2" d="M38.29,276.3s10.4,6.3,11.5,6.3,16.7,4,9.8,6.9-33.5-1.2-32.9-2.9,0-12.1,1.2-12.1S38.29,276.3,38.29,276.3Z"/><path class="cls-7" d="M26.39,156s2.7,15.7,5.6,22-.6,36.3-2.3,41-18.5,59.4-13.3,60S32,279,32,279l16.7-52.5-2.9-70.4Z"/><path class="cls-8" d="M26.39,156s2.7,15.7,5.6,22-.6,36.3-2.3,41-18.5,59.4-13.3,60S32,279,32,279l16.7-52.5-2.9-70.4Z"/><path class="cls-7" d="M30.79,154.6s2.3,15.6,7.5,19,3.5,6.9,3.5,6.9l-2.3,30.6S17,266.5,23.89,273.4s13.3,4,16.2,3.5,8.1-12.7,5.2-16.2,5.8-24.2,8.1-27.7,0-8.1,2.9-9.2,9.2-8.7,9.2-13.8,8.1-60.6,2.9-64-38.5,7.1-38.5,7.1Z"/><circle class="cls-4" cx="19.89" cy="61.1" r="12.7"/><circle class="cls-4" cx="48.69" cy="15" r="10.4"/><path class="cls-4" d="M28.49,61.1s6.9,12.7,10.4,12.7-13.8,13.3-13.8,13.3-5.8-16.7-6.9-17.3S28.49,61.1,28.49,61.1Z"/><path class="cls-9" d="M30.79,72.6s-15,5.2-14.4,6.9-4,5.8-4,7.5-1.2,17.3,5.8,30,17.9,21.9,12.7,27.7-13.3,15.6-4.6,15.6,22.5-12.7,35.2-8.1,9.8-12.7,9.8-12.7,1.7-13.3-1.7-17.3S54,89.3,54,85.9s-11.5-16.7-14.4-16.7S30.79,72.6,30.79,72.6Z"/><path class="cls-4" d="M51.59,21.3s4.7,8.9,4.9,10.5,8.3-10.5,8.3-10.5L55.59,15Z"/><path class="cls-10" d="M53.29,28.2l9.8-10.4L74.59,23S85.39,46.7,86,48.4s-17.2,9.8-18.9,9.8-13.8-17.9-13.8-17.9S50.39,31.7,53.29,28.2Z"/><polygon class="cls-4" points="48.69 42.1 48.69 52.5 55.59 52.5 53.39 42.1 48.69 42.1"/><path class="cls-4" d="M52.69,49.9a4.5,4.5,0,0,0-4.1,2.7c-.5,1.2-.3,2.5,1.8,3,4.6,1.2,5.2,0,5.2,0s8-1.2,6.3-3.5-6.3-2.3-6.3-2.3h-2.9Z"/><path class="cls-6" d="M77.59,99.8s6.9,6.3,5.2,6.9-8.1,7.5-9.2,8.1-12.1,4-10.4,0a15.32,15.32,0,0,1,5.8-6.3l1.2-6.9Z"/><path class="cls-6" d="M15.29,51.3c.8-.5,1.7-1,1.8-2A1.63,1.63,0,0,0,16,47.8a6.45,6.45,0,0,0-2-.3,2.2,2.2,0,0,0-.8.1c-.7.2-1,.9-1.6,1.3A5.7,5.7,0,0,1,8.79,50a18.59,18.59,0,0,0-4.6,1.9,1.34,1.34,0,0,0-.7.6,4,4,0,0,0-.3,1.5c-.1,2-1.3,3.7-2.2,5.4S-.51,63.3.59,65a15.26,15.26,0,0,1,1.1,1.6c.7,1.5-.2,3.4.3,5a4.52,4.52,0,0,0,1.1,1.7,9,9,0,0,0,3.6,2.2c1.3.4,2.9.7,3.5,1.9a10.93,10.93,0,0,0,.5,1.7,3,3,0,0,0,1.9,1,10.14,10.14,0,0,0,2.5.2,3.33,3.33,0,0,0,2.1-1.1,3.81,3.81,0,0,1,.9-1.3c.8-.7,2.1-.1,3.2-.3a2.25,2.25,0,0,0,1.8-1.7,2.84,2.84,0,0,1,.4-1.3c.7-.9,2.4-.3,2.9-1.2.3-.6-.3-1.3-.9-1.7a27.5,27.5,0,0,1-2.8-1.9,3.19,3.19,0,0,1-1.2-3c.4-1.7,2.6-2.6,2.7-4.3a3,3,0,0,0-1.5-2.4c-.8-.5-1.6-1.1-2.4-1.7-.5-.5-.9-1.1-1.5-1.6a6.09,6.09,0,0,0-3.7-1c-.7-.1-3.5-.4-3.4-1.5S14.59,51.8,15.29,51.3Z"/><path class="cls-10" d="M53.29,27.6S47,29.9,47,32.8s-2.9,12.1,0,12.1,8.7-2.2,8.7-2.2Z"/><path class="cls-4" d="M51.59,69.2s16.7-5.8,17.3-5.8,8.7-4.6,8.1-6.3l-2.3-14.4s-9.2-19-2.9-19,9.8,15,9.8,15,13.8,26,6.3,31.7-38.7,16.2-40.4,14.4S51.59,69.2,51.59,69.2Z"/><path class="cls-4" d="M67.79,31.7l3.9,3.8-5,4.9s-6.9-2.9-6.3-1.2,4,6.9,6.3,6.9,14.3-7.5,14.4-9.8-7.4-10.4-9.2-11S67.79,31.7,67.79,31.7Z"/><path class="cls-10" d="M60.39,27.7s8.5,7.5,9.6,7.5S73.29,24,73.29,24s-6.8-4.5-9.4-3.2S60.39,27.7,60.39,27.7Z"/><path class="cls-9" d="M30.79,76.1s0-8.1,17.3-8.1h7.5l-3.5,19-11.5,3.5Z"/><path class="cls-2" d="M68.59,10.7a43.61,43.61,0,0,1-5.1-.3c-1.3-3.2-3-5.9-4.8-6.9A21.16,21.16,0,0,0,53.79.8C50-.8,43.59.2,43.19,2c-7.6,3.6-5.7,10-5.7,10,1.2,2.5,3.8,1.4,6,.3a4.48,4.48,0,0,0,3.9,3.4c3.7.1,5.5,1.7,4.6,3.7s-2,6.9,2.1,6.1,5.3.9,4.6,2.1,1.8-2.4,1.8-2.4,2.2,3.3,5,1a2.07,2.07,0,0,0,.6-1,4.22,4.22,0,0,0,2.9.5c3.3-1.5,1.2-4.9,1.2-4.9s4.4-.7,3-.6-2.3-1.7.1-5S70.89,10.8,68.59,10.7Z"/><rect class="cls-11" x="42.06" y="9.47" width="5.2" height="1.7" transform="translate(20.77 49.44) rotate(-71.59)"/></g></g></svg>