<svg xmlns="http://www.w3.org/2000/svg" viewBox="0 0 139.13 175.23"><defs><style>.cls-1{fill:#a0a0a0;}.cls-2{fill:#300;}.cls-3{fill:#3f3d56;}.cls-4{fill:#010102;}.cls-4,.cls-7{isolation:isolate;opacity:0.1;}.cls-5{fill:#3d3d3d;}.cls-6{fill:#2d2d2d;}.cls-8{fill:#f2f2f2;}.cls-9{fill:#3f3f3f;}.cls-10{fill:#2f2e41;}.cls-11{fill:#4f4f4f;}</style></defs><g id="Layer_2" data-name="Layer 2"><g id="Layer_1-2" data-name="Layer 1"><path class="cls-1" d="M112.79,15l16.1-3.1s3.9-13.4,8.7-11.8-3.1,14.9-3.1,14.9L112,25.23Z"/><path class="cls-1" d="M14.79,28.33l-7.1,9s-10.2-.4-7.1,5.1,10.2,2.4,10.6,1.2S23,32.23,23,32.23Z"/><path class="cls-2" d="M43.79,17.93l5.9-3.1s25.2-2,34.6,4.3-39.7,7.1-39.7,7.1Z"/><path class="cls-3" d="M55,12.23s-3.1-7.5,1.2-8.3a18.94,18.94,0,0,1,7.5,0L59,7.83Z"/><path class="cls-4" d="M55,12.23s-3.1-7.5,1.2-8.3a18.94,18.94,0,0,1,7.5,0L59,7.83Z"/><path class="cls-5" d="M33.29,57.43l-11.4-.8,2,3.5s-15.7,4.7-10.6,18.1a170.53,170.53,0,0,0,13,26l5.1,9.8s10.6,1.6,11-1.6,0-4.7-2-6.3a9.52,9.52,0,0,1-3.1-6.3c0-1.6.4-3.1-.8-3.9s-1.6-2-1.6-4.3-4.3-11-4.3-11,13.8-.4,18.1,3.1,18.5,16.9,18.5,16.9a11.76,11.76,0,0,1,2,2.8c.8,1.6.8,2.4,2.4,3.1s.4,3.9,0,4.3-4.3,16.1-4.3,16.1-4.3,7.5.4,7.9,9,.8,9.4,0a18.19,18.19,0,0,1,1.6-3.1c1.2-2,0-6.3,0-6.3s11.4-14.6,7.9-23.6-11-29.5-11-29.5l-11.4-4.7-20.8-7.5Z"/><path class="cls-6" d="M32.49,112.13s-2.4,9-3.1,9.4-9.4,7.9-3.5,9,10.2.8,11.4-.4.8-2.4,2.8-2.8,5.5-1.6,5.1-4.3-2.4-10.2-3.5-11S32.49,112.13,32.49,112.13Z"/><path class="cls-6" d="M66.79,132.23s-3.5,2.8-1.6,7.9,4.7,10.6,4.7,10.6,3.1,9.8,8.3,8.3a5.48,5.48,0,0,0,3.6-4.2,10.32,10.32,0,0,0-1.4-8.2l-3-4.5-3.1-8.3Z"/><path class="cls-1" d="M56.89,16.53s-4.7-.4-5.5.8-4.3,16.9,0,18.5,17.3,4.3,19.3,2.4,2.8-19.3,2.8-19.3Z"/><path class="cls-7" d="M46.89,16.53s-4.7-.4-5.5.8-4.3,16.9,0,18.5,17.3,4.3,19.3,2.4,2.8-19.3,2.8-19.3Z"/><path class="cls-8" d="M49.89,29.53s5.5,5.5,9,4.7,11.8-4.3,12.6-5.9,10.6-2,10.6-2l-10.6,29.5L79,80.63s4.3-5.1-7.5-5.5-27.5-6.3-30.3-14.2c0,0-17.3-2.4-18.1-2.8s2-2.8,2-2.8l11.4-3.1,8.3-10.6Z"/><path class="cls-9" d="M53.39,17.33s2-2.8,0-2.8a73.13,73.13,0,0,0-9.4.4c-2,.4-9.4-1.6-10.2.8s-.8,16.9.8,18.1,2.4,1.2.4,3.5-6.7,10.2-5.5,13-12.6,3.5-10.6,6.7a6.39,6.39,0,0,0,5.1,3.1s.8-6.3,5.5-3.1,11,11,16.1,5.9,7.1-9.8,7.5-16.5a57.18,57.18,0,0,0-.8-14.9C51.39,27.63,53.39,17.33,53.39,17.33Z"/><path class="cls-9" d="M73.79,24.83s3.1,2.8,0,9.4-11.4,22.4-4.7,32.6,9.4,13,7.9,14.9a7.58,7.58,0,0,0-1.6,4.3l4.3-1.6a49.85,49.85,0,0,1,2.4-9.4c1.6-3.9-3.1-15.7-3.1-15.7L80.59,44s6.3-9.8,7.1-10.2-1.6-17.3-1.6-17.3-3.9-1.2-5.9,0S73.79,24.83,73.79,24.83Z"/><path class="cls-9" d="M36.09,16.13h-2.4l-16.1,8.3s-1.2-5.1-2-3.9-.4,4.3-2.4,5.1-3.1,2,0,3.5,3.5.4,3.5,3.1,2.4,3.1,4.3,2.4,2.4-1.2,4.3-.4.8,2,3.5.8,9.8-.8,9.8-.8Z"/><path class="cls-9" d="M83.29,17.33l2.8-.8s8.3.8,10.2.8,3.9-.4,5.1-.4,7.1-.8,7.9-1.6,4.3-2.8,4.7-1.6,4.7,8.7.8,12.2-4.7,2-7.1,3.5-21.2,4.7-21.6,4.3S83.29,17.33,83.29,17.33Z"/><circle class="cls-1" cx="67.19" cy="20.53" r="11.8"/><path class="cls-10" d="M58.49,20.93a2.35,2.35,0,0,1,.2.8,3,3,0,0,0,3,2.4,1.84,1.84,0,0,0,1.4,2.2h.2a11.12,11.12,0,0,0,1.8-3.4,2.62,2.62,0,0,1,.6-1.3,2.72,2.72,0,0,1,1.7-.6c3.1-.4,6.3-.6,9.5-.7a2.38,2.38,0,0,0,1.2-.3c.9-.6.6-2,0-2.9a8.44,8.44,0,0,0-4.8-3.7,21.27,21.27,0,0,0-4.4-.7,59,59,0,0,0-5.9-.6,9.59,9.59,0,0,0-5.7,1.5c-1.2.8-3.1,3.2-2.2,4.6.2.2.6.4.8.6s.3.8.6,1.1C57.09,20.53,58.09,20.33,58.49,20.93Z"/><path class="cls-11" d="M67.19.83S53.79,5.53,55,12.23s4.7,14.6,12.2,14.2,11.4-8.5,11.4-8.5l-2-11.1C76.59,6.73,69.09.83,67.19.83Z"/><path class="cls-10" d="M65.49,24.43s5.3-5.7,7.9-2.4C73.39,22,73.29,21.83,65.49,24.43Z"/><path class="cls-10" d="M75.39,170.33c-7.1,0-15.8-2.3-24.3-10.8-20.8-20.7-40.6-22.7-40.8-22.8l.1-.8c.2,0,20.3,2.1,41.3,23,10.8,10.7,21.9,11.4,29.4,10a38.45,38.45,0,0,0,13.8-5.5l.5.6a37.79,37.79,0,0,1-14.1,5.7A29.53,29.53,0,0,1,75.39,170.33Z"/><circle class="cls-6" cx="20.89" cy="148.53" r="4.7"/><circle class="cls-6" cx="54.39" cy="170.53" r="4.7"/></g></g></svg>